G04 #@! TF.GenerationSoftware,KiCad,Pcbnew,(5.1.9)-1*
G04 #@! TF.CreationDate,2021-04-25T19:06:47+03:00*
G04 #@! TF.ProjectId,TPS5430_Board_Rev_1.0,54505335-3433-4305-9f42-6f6172645f52,rev?*
G04 #@! TF.SameCoordinates,Original*
G04 #@! TF.FileFunction,Copper,L2,Bot*
G04 #@! TF.FilePolarity,Positive*
%FSLAX46Y46*%
G04 Gerber Fmt 4.6, Leading zero omitted, Abs format (unit mm)*
G04 Created by KiCad (PCBNEW (5.1.9)-1) date 2021-04-25 19:06:47*
%MOMM*%
%LPD*%
G01*
G04 APERTURE LIST*
G04 #@! TA.AperFunction,ComponentPad*
%ADD10C,0.600000*%
G04 #@! TD*
G04 #@! TA.AperFunction,SMDPad,CuDef*
%ADD11R,2.950000X4.500000*%
G04 #@! TD*
G04 #@! TA.AperFunction,ComponentPad*
%ADD12R,2.500000X2.500000*%
G04 #@! TD*
G04 #@! TA.AperFunction,ComponentPad*
%ADD13O,1.700000X1.700000*%
G04 #@! TD*
G04 #@! TA.AperFunction,ComponentPad*
%ADD14R,1.700000X1.700000*%
G04 #@! TD*
G04 #@! TA.AperFunction,ComponentPad*
%ADD15C,2.200000*%
G04 #@! TD*
G04 #@! TA.AperFunction,ComponentPad*
%ADD16R,2.200000X2.200000*%
G04 #@! TD*
G04 #@! TA.AperFunction,ComponentPad*
%ADD17C,0.800000*%
G04 #@! TD*
G04 #@! TA.AperFunction,ComponentPad*
%ADD18C,6.400000*%
G04 #@! TD*
G04 #@! TA.AperFunction,ViaPad*
%ADD19C,0.800000*%
G04 #@! TD*
G04 #@! TA.AperFunction,Conductor*
%ADD20C,0.254000*%
G04 #@! TD*
G04 #@! TA.AperFunction,Conductor*
%ADD21C,0.100000*%
G04 #@! TD*
G04 APERTURE END LIST*
D10*
X91900000Y-119435000D03*
X91900000Y-118335000D03*
X90700000Y-118335000D03*
X90700000Y-119435000D03*
X91900000Y-115835000D03*
X91900000Y-117035000D03*
X90700000Y-117035000D03*
X90700000Y-115835000D03*
D11*
X91300000Y-117635000D03*
D12*
X64000000Y-112000000D03*
X71000000Y-135000000D03*
X98000000Y-135000000D03*
X107000000Y-111000000D03*
D13*
X85540000Y-137000000D03*
D14*
X83000000Y-137000000D03*
D13*
X85540000Y-133000000D03*
D14*
X83000000Y-133000000D03*
D13*
X85540000Y-129000000D03*
D14*
X83000000Y-129000000D03*
D15*
X64000000Y-122540000D03*
D16*
X64000000Y-120000000D03*
D13*
X85540000Y-125000000D03*
D14*
X83000000Y-125000000D03*
D15*
X106000000Y-124460000D03*
D16*
X106000000Y-127000000D03*
D17*
X66697056Y-133302944D03*
X65000000Y-132600000D03*
X63302944Y-133302944D03*
X62600000Y-135000000D03*
X63302944Y-136697056D03*
X65000000Y-137400000D03*
X66697056Y-136697056D03*
X67400000Y-135000000D03*
D18*
X65000000Y-135000000D03*
D17*
X106597056Y-103302944D03*
X104900000Y-102600000D03*
X103202944Y-103302944D03*
X102500000Y-105000000D03*
X103202944Y-106697056D03*
X104900000Y-107400000D03*
X106597056Y-106697056D03*
X107300000Y-105000000D03*
D18*
X104900000Y-105000000D03*
D17*
X106697056Y-133302944D03*
X105000000Y-132600000D03*
X103302944Y-133302944D03*
X102600000Y-135000000D03*
X103302944Y-136697056D03*
X105000000Y-137400000D03*
X106697056Y-136697056D03*
X107400000Y-135000000D03*
D18*
X105000000Y-135000000D03*
D17*
X66697056Y-103302944D03*
X65000000Y-102600000D03*
X63302944Y-103302944D03*
X62600000Y-105000000D03*
X63302944Y-106697056D03*
X65000000Y-107400000D03*
X66697056Y-106697056D03*
X67400000Y-105000000D03*
D18*
X65000000Y-105000000D03*
D19*
X75000000Y-131600000D03*
X99500000Y-120000000D03*
X103400000Y-120000000D03*
X98500000Y-120000000D03*
X102400000Y-120000000D03*
X86200000Y-109700000D03*
X86200000Y-108300000D03*
X85000000Y-108300000D03*
X85000000Y-109700000D03*
X83800000Y-109700000D03*
X83800000Y-108300000D03*
X106400000Y-129000000D03*
X106400000Y-130400000D03*
X105400000Y-130400000D03*
X105400000Y-129000000D03*
X104400000Y-129000000D03*
X104400000Y-130400000D03*
X63200000Y-124800000D03*
X64200000Y-124800000D03*
X65200000Y-124800000D03*
X65200000Y-125800000D03*
X64200000Y-125800000D03*
X63200000Y-125800000D03*
X63200000Y-126800000D03*
X64200000Y-126800000D03*
X65200000Y-126800000D03*
X95800000Y-121600000D03*
X95800000Y-122600000D03*
X95800000Y-123600000D03*
X95800000Y-124600000D03*
X95800000Y-125600000D03*
X95800000Y-126600000D03*
X95800000Y-127600000D03*
X95800000Y-128600000D03*
X104400000Y-110200000D03*
X104400000Y-111200000D03*
X104400000Y-112200000D03*
X103200000Y-110200000D03*
X103200000Y-111200000D03*
X103200000Y-112200000D03*
X104000000Y-123000000D03*
X104000000Y-124000000D03*
X104000000Y-125000000D03*
X103000000Y-125000000D03*
X103000000Y-124000000D03*
X103000000Y-123000000D03*
X102000000Y-125000000D03*
X102000000Y-124000000D03*
X102000000Y-123000000D03*
X79700000Y-101700000D03*
X80800000Y-101700000D03*
X81900000Y-101700000D03*
X81900000Y-102800000D03*
X80800000Y-102800000D03*
X79700000Y-102800000D03*
X96500000Y-105000000D03*
X96500000Y-103900000D03*
X97700000Y-103900000D03*
X97700000Y-105000000D03*
X98900000Y-105000000D03*
X98900000Y-103900000D03*
X100100000Y-103900000D03*
X100100000Y-105000000D03*
X63200000Y-117800000D03*
X64200000Y-117800000D03*
X65200000Y-117800000D03*
X63200000Y-116600000D03*
X64200000Y-116600000D03*
X65200000Y-116600000D03*
X63200000Y-114200000D03*
X64200000Y-114200000D03*
X65200000Y-114200000D03*
X65200000Y-115400000D03*
X64200000Y-115400000D03*
X63200000Y-115400000D03*
X78400000Y-119400000D03*
X77300000Y-119400000D03*
X76200000Y-119400000D03*
X75100000Y-119400000D03*
X74000000Y-119400000D03*
X73300000Y-121700000D03*
X72300000Y-121700000D03*
X72300000Y-120600000D03*
X73300000Y-120600000D03*
D20*
X105805065Y-100525647D02*
X106584678Y-100738925D01*
X107314201Y-101086889D01*
X107970584Y-101558548D01*
X108533065Y-102138983D01*
X108983868Y-102809851D01*
X109308749Y-103549949D01*
X109498269Y-104339355D01*
X109548000Y-105016572D01*
X109548001Y-134979854D01*
X109474353Y-135805066D01*
X109261075Y-136584678D01*
X108913108Y-137314205D01*
X108441452Y-137970584D01*
X107861017Y-138533065D01*
X107190149Y-138983869D01*
X106450054Y-139308748D01*
X105660647Y-139498269D01*
X104983429Y-139548000D01*
X65020135Y-139548000D01*
X64194934Y-139474353D01*
X63415322Y-139261075D01*
X62685795Y-138913108D01*
X62029416Y-138441452D01*
X61466935Y-137861017D01*
X61016131Y-137190149D01*
X60691252Y-136450054D01*
X60619215Y-136150000D01*
X81720934Y-136150000D01*
X81720934Y-137850000D01*
X81729178Y-137933707D01*
X81753595Y-138014196D01*
X81793245Y-138088376D01*
X81846605Y-138153395D01*
X81911624Y-138206755D01*
X81985804Y-138246405D01*
X82066293Y-138270822D01*
X82150000Y-138279066D01*
X83850000Y-138279066D01*
X83933707Y-138270822D01*
X84014196Y-138246405D01*
X84088376Y-138206755D01*
X84153395Y-138153395D01*
X84206755Y-138088376D01*
X84246405Y-138014196D01*
X84270822Y-137933707D01*
X84279066Y-137850000D01*
X84279066Y-137206544D01*
X84312074Y-137372487D01*
X84408337Y-137604886D01*
X84548089Y-137814040D01*
X84725960Y-137991911D01*
X84935114Y-138131663D01*
X85167513Y-138227926D01*
X85414226Y-138277000D01*
X85665774Y-138277000D01*
X85912487Y-138227926D01*
X86144886Y-138131663D01*
X86354040Y-137991911D01*
X86531911Y-137814040D01*
X86671663Y-137604886D01*
X86767926Y-137372487D01*
X86817000Y-137125774D01*
X86817000Y-136874226D01*
X86767926Y-136627513D01*
X86671663Y-136395114D01*
X86531911Y-136185960D01*
X86354040Y-136008089D01*
X86144886Y-135868337D01*
X85912487Y-135772074D01*
X85665774Y-135723000D01*
X85414226Y-135723000D01*
X85167513Y-135772074D01*
X84935114Y-135868337D01*
X84725960Y-136008089D01*
X84548089Y-136185960D01*
X84408337Y-136395114D01*
X84312074Y-136627513D01*
X84279066Y-136793456D01*
X84279066Y-136150000D01*
X84270822Y-136066293D01*
X84246405Y-135985804D01*
X84206755Y-135911624D01*
X84153395Y-135846605D01*
X84088376Y-135793245D01*
X84014196Y-135753595D01*
X83933707Y-135729178D01*
X83850000Y-135720934D01*
X82150000Y-135720934D01*
X82066293Y-135729178D01*
X81985804Y-135753595D01*
X81911624Y-135793245D01*
X81846605Y-135846605D01*
X81793245Y-135911624D01*
X81753595Y-135985804D01*
X81729178Y-136066293D01*
X81720934Y-136150000D01*
X60619215Y-136150000D01*
X60501731Y-135660647D01*
X60452000Y-134983429D01*
X60452000Y-132150000D01*
X81720934Y-132150000D01*
X81720934Y-133850000D01*
X81729178Y-133933707D01*
X81753595Y-134014196D01*
X81793245Y-134088376D01*
X81846605Y-134153395D01*
X81911624Y-134206755D01*
X81985804Y-134246405D01*
X82066293Y-134270822D01*
X82150000Y-134279066D01*
X83850000Y-134279066D01*
X83933707Y-134270822D01*
X84014196Y-134246405D01*
X84088376Y-134206755D01*
X84153395Y-134153395D01*
X84206755Y-134088376D01*
X84246405Y-134014196D01*
X84270822Y-133933707D01*
X84279066Y-133850000D01*
X84279066Y-133206544D01*
X84312074Y-133372487D01*
X84408337Y-133604886D01*
X84548089Y-133814040D01*
X84725960Y-133991911D01*
X84935114Y-134131663D01*
X85167513Y-134227926D01*
X85414226Y-134277000D01*
X85665774Y-134277000D01*
X85912487Y-134227926D01*
X86144886Y-134131663D01*
X86354040Y-133991911D01*
X86531911Y-133814040D01*
X86671663Y-133604886D01*
X86767926Y-133372487D01*
X86817000Y-133125774D01*
X86817000Y-132874226D01*
X86767926Y-132627513D01*
X86671663Y-132395114D01*
X86531911Y-132185960D01*
X86354040Y-132008089D01*
X86144886Y-131868337D01*
X85912487Y-131772074D01*
X85665774Y-131723000D01*
X85414226Y-131723000D01*
X85167513Y-131772074D01*
X84935114Y-131868337D01*
X84725960Y-132008089D01*
X84548089Y-132185960D01*
X84408337Y-132395114D01*
X84312074Y-132627513D01*
X84279066Y-132793456D01*
X84279066Y-132150000D01*
X84270822Y-132066293D01*
X84246405Y-131985804D01*
X84206755Y-131911624D01*
X84153395Y-131846605D01*
X84088376Y-131793245D01*
X84014196Y-131753595D01*
X83933707Y-131729178D01*
X83850000Y-131720934D01*
X82150000Y-131720934D01*
X82066293Y-131729178D01*
X81985804Y-131753595D01*
X81911624Y-131793245D01*
X81846605Y-131846605D01*
X81793245Y-131911624D01*
X81753595Y-131985804D01*
X81729178Y-132066293D01*
X81720934Y-132150000D01*
X60452000Y-132150000D01*
X60452000Y-128150000D01*
X81720934Y-128150000D01*
X81720934Y-129850000D01*
X81729178Y-129933707D01*
X81753595Y-130014196D01*
X81793245Y-130088376D01*
X81846605Y-130153395D01*
X81911624Y-130206755D01*
X81985804Y-130246405D01*
X82066293Y-130270822D01*
X82150000Y-130279066D01*
X83850000Y-130279066D01*
X83933707Y-130270822D01*
X84014196Y-130246405D01*
X84088376Y-130206755D01*
X84153395Y-130153395D01*
X84206755Y-130088376D01*
X84246405Y-130014196D01*
X84270822Y-129933707D01*
X84279066Y-129850000D01*
X84279066Y-129206544D01*
X84312074Y-129372487D01*
X84408337Y-129604886D01*
X84548089Y-129814040D01*
X84725960Y-129991911D01*
X84935114Y-130131663D01*
X85167513Y-130227926D01*
X85414226Y-130277000D01*
X85665774Y-130277000D01*
X85912487Y-130227926D01*
X86144886Y-130131663D01*
X86354040Y-129991911D01*
X86531911Y-129814040D01*
X86671663Y-129604886D01*
X86767926Y-129372487D01*
X86817000Y-129125774D01*
X86817000Y-128874226D01*
X86767926Y-128627513D01*
X86671663Y-128395114D01*
X86531911Y-128185960D01*
X86354040Y-128008089D01*
X86144886Y-127868337D01*
X85912487Y-127772074D01*
X85665774Y-127723000D01*
X85414226Y-127723000D01*
X85167513Y-127772074D01*
X84935114Y-127868337D01*
X84725960Y-128008089D01*
X84548089Y-128185960D01*
X84408337Y-128395114D01*
X84312074Y-128627513D01*
X84279066Y-128793456D01*
X84279066Y-128150000D01*
X84270822Y-128066293D01*
X84246405Y-127985804D01*
X84206755Y-127911624D01*
X84153395Y-127846605D01*
X84088376Y-127793245D01*
X84014196Y-127753595D01*
X83933707Y-127729178D01*
X83850000Y-127720934D01*
X82150000Y-127720934D01*
X82066293Y-127729178D01*
X81985804Y-127753595D01*
X81911624Y-127793245D01*
X81846605Y-127846605D01*
X81793245Y-127911624D01*
X81753595Y-127985804D01*
X81729178Y-128066293D01*
X81720934Y-128150000D01*
X60452000Y-128150000D01*
X60452000Y-126903774D01*
X107563000Y-126903774D01*
X107563000Y-127096226D01*
X107600546Y-127284980D01*
X107674194Y-127462783D01*
X107781115Y-127622801D01*
X107917199Y-127758885D01*
X108077217Y-127865806D01*
X108255020Y-127939454D01*
X108443774Y-127977000D01*
X108636226Y-127977000D01*
X108824980Y-127939454D01*
X109002783Y-127865806D01*
X109162801Y-127758885D01*
X109298885Y-127622801D01*
X109405806Y-127462783D01*
X109479454Y-127284980D01*
X109517000Y-127096226D01*
X109517000Y-126903774D01*
X109479454Y-126715020D01*
X109405806Y-126537217D01*
X109298885Y-126377199D01*
X109162801Y-126241115D01*
X109002783Y-126134194D01*
X108824980Y-126060546D01*
X108636226Y-126023000D01*
X108443774Y-126023000D01*
X108255020Y-126060546D01*
X108077217Y-126134194D01*
X107917199Y-126241115D01*
X107781115Y-126377199D01*
X107674194Y-126537217D01*
X107600546Y-126715020D01*
X107563000Y-126903774D01*
X60452000Y-126903774D01*
X60452000Y-124150000D01*
X81720934Y-124150000D01*
X81720934Y-125850000D01*
X81729178Y-125933707D01*
X81753595Y-126014196D01*
X81793245Y-126088376D01*
X81846605Y-126153395D01*
X81911624Y-126206755D01*
X81985804Y-126246405D01*
X82066293Y-126270822D01*
X82150000Y-126279066D01*
X83850000Y-126279066D01*
X83933707Y-126270822D01*
X84014196Y-126246405D01*
X84088376Y-126206755D01*
X84153395Y-126153395D01*
X84206755Y-126088376D01*
X84246405Y-126014196D01*
X84270822Y-125933707D01*
X84279066Y-125850000D01*
X84279066Y-125206544D01*
X84312074Y-125372487D01*
X84408337Y-125604886D01*
X84548089Y-125814040D01*
X84725960Y-125991911D01*
X84935114Y-126131663D01*
X85167513Y-126227926D01*
X85414226Y-126277000D01*
X85665774Y-126277000D01*
X85912487Y-126227926D01*
X86144886Y-126131663D01*
X86354040Y-125991911D01*
X86531911Y-125814040D01*
X86671663Y-125604886D01*
X86767926Y-125372487D01*
X86817000Y-125125774D01*
X86817000Y-124874226D01*
X86767926Y-124627513D01*
X86671663Y-124395114D01*
X86531911Y-124185960D01*
X86354040Y-124008089D01*
X86144886Y-123868337D01*
X85912487Y-123772074D01*
X85665774Y-123723000D01*
X85414226Y-123723000D01*
X85167513Y-123772074D01*
X84935114Y-123868337D01*
X84725960Y-124008089D01*
X84548089Y-124185960D01*
X84408337Y-124395114D01*
X84312074Y-124627513D01*
X84279066Y-124793456D01*
X84279066Y-124150000D01*
X84270822Y-124066293D01*
X84246405Y-123985804D01*
X84206755Y-123911624D01*
X84153395Y-123846605D01*
X84088376Y-123793245D01*
X84014196Y-123753595D01*
X83933707Y-123729178D01*
X83850000Y-123720934D01*
X82150000Y-123720934D01*
X82066293Y-123729178D01*
X81985804Y-123753595D01*
X81911624Y-123793245D01*
X81846605Y-123846605D01*
X81793245Y-123911624D01*
X81753595Y-123985804D01*
X81729178Y-124066293D01*
X81720934Y-124150000D01*
X60452000Y-124150000D01*
X60452000Y-122443774D01*
X60483000Y-122443774D01*
X60483000Y-122636226D01*
X60520546Y-122824980D01*
X60594194Y-123002783D01*
X60701115Y-123162801D01*
X60837199Y-123298885D01*
X60997217Y-123405806D01*
X61175020Y-123479454D01*
X61363774Y-123517000D01*
X61556226Y-123517000D01*
X61744980Y-123479454D01*
X61922783Y-123405806D01*
X62082801Y-123298885D01*
X62218885Y-123162801D01*
X62325806Y-123002783D01*
X62399454Y-122824980D01*
X62437000Y-122636226D01*
X62437000Y-122443774D01*
X62399454Y-122255020D01*
X62325806Y-122077217D01*
X62218885Y-121917199D01*
X62082801Y-121781115D01*
X61922783Y-121674194D01*
X61744980Y-121600546D01*
X61556226Y-121563000D01*
X61363774Y-121563000D01*
X61175020Y-121600546D01*
X60997217Y-121674194D01*
X60837199Y-121781115D01*
X60701115Y-121917199D01*
X60594194Y-122077217D01*
X60520546Y-122255020D01*
X60483000Y-122443774D01*
X60452000Y-122443774D01*
X60452000Y-119903774D01*
X60483000Y-119903774D01*
X60483000Y-120096226D01*
X60520546Y-120284980D01*
X60594194Y-120462783D01*
X60701115Y-120622801D01*
X60837199Y-120758885D01*
X60997217Y-120865806D01*
X61175020Y-120939454D01*
X61363774Y-120977000D01*
X61556226Y-120977000D01*
X61744980Y-120939454D01*
X61922783Y-120865806D01*
X62082801Y-120758885D01*
X62218885Y-120622801D01*
X62325806Y-120462783D01*
X62399454Y-120284980D01*
X62437000Y-120096226D01*
X62437000Y-119903774D01*
X62399454Y-119715020D01*
X62325806Y-119537217D01*
X62218885Y-119377199D01*
X62082801Y-119241115D01*
X61922783Y-119134194D01*
X61744980Y-119060546D01*
X61556226Y-119023000D01*
X61363774Y-119023000D01*
X61175020Y-119060546D01*
X60997217Y-119134194D01*
X60837199Y-119241115D01*
X60701115Y-119377199D01*
X60594194Y-119537217D01*
X60520546Y-119715020D01*
X60483000Y-119903774D01*
X60452000Y-119903774D01*
X60452000Y-110750000D01*
X62320934Y-110750000D01*
X62320934Y-113250000D01*
X62329178Y-113333707D01*
X62353595Y-113414196D01*
X62393245Y-113488376D01*
X62446605Y-113553395D01*
X62511624Y-113606755D01*
X62584656Y-113645791D01*
X62557628Y-113672819D01*
X62467123Y-113808269D01*
X62404782Y-113958773D01*
X62373000Y-114118548D01*
X62373000Y-114281452D01*
X62404782Y-114441227D01*
X62467123Y-114591731D01*
X62557628Y-114727181D01*
X62630447Y-114800000D01*
X62557628Y-114872819D01*
X62467123Y-115008269D01*
X62404782Y-115158773D01*
X62373000Y-115318548D01*
X62373000Y-115481452D01*
X62404782Y-115641227D01*
X62467123Y-115791731D01*
X62557628Y-115927181D01*
X62630447Y-116000000D01*
X62557628Y-116072819D01*
X62467123Y-116208269D01*
X62404782Y-116358773D01*
X62373000Y-116518548D01*
X62373000Y-116681452D01*
X62404782Y-116841227D01*
X62467123Y-116991731D01*
X62557628Y-117127181D01*
X62630447Y-117200000D01*
X62557628Y-117272819D01*
X62467123Y-117408269D01*
X62404782Y-117558773D01*
X62373000Y-117718548D01*
X62373000Y-117881452D01*
X62404782Y-118041227D01*
X62467123Y-118191731D01*
X62557628Y-118327181D01*
X62672819Y-118442372D01*
X62755502Y-118497619D01*
X62735804Y-118503595D01*
X62661624Y-118543245D01*
X62596605Y-118596605D01*
X62543245Y-118661624D01*
X62503595Y-118735804D01*
X62479178Y-118816293D01*
X62470934Y-118900000D01*
X62470934Y-121100000D01*
X62479178Y-121183707D01*
X62503595Y-121264196D01*
X62543245Y-121338376D01*
X62596605Y-121403395D01*
X62661624Y-121456755D01*
X62735804Y-121496405D01*
X62816293Y-121520822D01*
X62900000Y-121529066D01*
X65100000Y-121529066D01*
X65183707Y-121520822D01*
X65264196Y-121496405D01*
X65338376Y-121456755D01*
X65403395Y-121403395D01*
X65456755Y-121338376D01*
X65496405Y-121264196D01*
X65520822Y-121183707D01*
X65529066Y-121100000D01*
X65529066Y-120518548D01*
X71473000Y-120518548D01*
X71473000Y-120681452D01*
X71504782Y-120841227D01*
X71567123Y-120991731D01*
X71657628Y-121127181D01*
X71680447Y-121150000D01*
X71657628Y-121172819D01*
X71567123Y-121308269D01*
X71504782Y-121458773D01*
X71473000Y-121618548D01*
X71473000Y-121781452D01*
X71504782Y-121941227D01*
X71567123Y-122091731D01*
X71657628Y-122227181D01*
X71772819Y-122342372D01*
X71908269Y-122432877D01*
X72058773Y-122495218D01*
X72218548Y-122527000D01*
X72381452Y-122527000D01*
X72541227Y-122495218D01*
X72691731Y-122432877D01*
X72800000Y-122360534D01*
X72908269Y-122432877D01*
X73058773Y-122495218D01*
X73218548Y-122527000D01*
X73381452Y-122527000D01*
X73541227Y-122495218D01*
X73691731Y-122432877D01*
X73827181Y-122342372D01*
X73869553Y-122300000D01*
X100373000Y-122300000D01*
X100373000Y-125600000D01*
X100381205Y-125683304D01*
X100405503Y-125763406D01*
X100444962Y-125837228D01*
X100498065Y-125901935D01*
X100562772Y-125955038D01*
X100636594Y-125994497D01*
X100716696Y-126018795D01*
X100800000Y-126027000D01*
X107400000Y-126027000D01*
X107483304Y-126018795D01*
X107563406Y-125994497D01*
X107637228Y-125955038D01*
X107701935Y-125901935D01*
X107755038Y-125837228D01*
X107794497Y-125763406D01*
X107818795Y-125683304D01*
X107827000Y-125600000D01*
X107827000Y-125128686D01*
X107917199Y-125218885D01*
X108077217Y-125325806D01*
X108255020Y-125399454D01*
X108443774Y-125437000D01*
X108636226Y-125437000D01*
X108824980Y-125399454D01*
X109002783Y-125325806D01*
X109162801Y-125218885D01*
X109298885Y-125082801D01*
X109405806Y-124922783D01*
X109479454Y-124744980D01*
X109517000Y-124556226D01*
X109517000Y-124363774D01*
X109479454Y-124175020D01*
X109405806Y-123997217D01*
X109298885Y-123837199D01*
X109162801Y-123701115D01*
X109002783Y-123594194D01*
X108824980Y-123520546D01*
X108636226Y-123483000D01*
X108443774Y-123483000D01*
X108255020Y-123520546D01*
X108077217Y-123594194D01*
X107917199Y-123701115D01*
X107827000Y-123791314D01*
X107827000Y-123255045D01*
X108902441Y-122675961D01*
X109001935Y-122601935D01*
X109055038Y-122537228D01*
X109094497Y-122463406D01*
X109118795Y-122383304D01*
X109127000Y-122300000D01*
X109127000Y-109400000D01*
X109118795Y-109316696D01*
X109094497Y-109236594D01*
X109055038Y-109162772D01*
X109001935Y-109098065D01*
X108937228Y-109044962D01*
X108863406Y-109005503D01*
X108783304Y-108981205D01*
X108700000Y-108973000D01*
X105400000Y-108973000D01*
X105316696Y-108981205D01*
X105236594Y-109005503D01*
X105162772Y-109044962D01*
X105098065Y-109098065D01*
X105044962Y-109162772D01*
X105005503Y-109236594D01*
X104981205Y-109316696D01*
X104973000Y-109400000D01*
X104973000Y-109603447D01*
X104927181Y-109557628D01*
X104791731Y-109467123D01*
X104641227Y-109404782D01*
X104481452Y-109373000D01*
X104318548Y-109373000D01*
X104158773Y-109404782D01*
X104008269Y-109467123D01*
X103872819Y-109557628D01*
X103800000Y-109630447D01*
X103727181Y-109557628D01*
X103591731Y-109467123D01*
X103441227Y-109404782D01*
X103281452Y-109373000D01*
X103118548Y-109373000D01*
X102958773Y-109404782D01*
X102808269Y-109467123D01*
X102672819Y-109557628D01*
X102557628Y-109672819D01*
X102467123Y-109808269D01*
X102404782Y-109958773D01*
X102373000Y-110118548D01*
X102373000Y-110281452D01*
X102404782Y-110441227D01*
X102467123Y-110591731D01*
X102539466Y-110700000D01*
X102467123Y-110808269D01*
X102404782Y-110958773D01*
X102373000Y-111118548D01*
X102373000Y-111281452D01*
X102404782Y-111441227D01*
X102467123Y-111591731D01*
X102539466Y-111700000D01*
X102467123Y-111808269D01*
X102404782Y-111958773D01*
X102373000Y-112118548D01*
X102373000Y-112281452D01*
X102404782Y-112441227D01*
X102467123Y-112591731D01*
X102557628Y-112727181D01*
X102672819Y-112842372D01*
X102808269Y-112932877D01*
X102958773Y-112995218D01*
X103118548Y-113027000D01*
X103281452Y-113027000D01*
X103441227Y-112995218D01*
X103591731Y-112932877D01*
X103727181Y-112842372D01*
X103800000Y-112769553D01*
X103872819Y-112842372D01*
X104008269Y-112932877D01*
X104158773Y-112995218D01*
X104318548Y-113027000D01*
X104481452Y-113027000D01*
X104641227Y-112995218D01*
X104791731Y-112932877D01*
X104927181Y-112842372D01*
X104973000Y-112796553D01*
X104973000Y-121237655D01*
X104408249Y-121873000D01*
X100800000Y-121873000D01*
X100716696Y-121881205D01*
X100636594Y-121905503D01*
X100562772Y-121944962D01*
X100498065Y-121998065D01*
X100444962Y-122062772D01*
X100405503Y-122136594D01*
X100381205Y-122216696D01*
X100373000Y-122300000D01*
X73869553Y-122300000D01*
X73942372Y-122227181D01*
X74032877Y-122091731D01*
X74095218Y-121941227D01*
X74127000Y-121781452D01*
X74127000Y-121618548D01*
X74095218Y-121458773D01*
X74032877Y-121308269D01*
X73942372Y-121172819D01*
X73919553Y-121150000D01*
X73942372Y-121127181D01*
X74032877Y-120991731D01*
X74095218Y-120841227D01*
X74127000Y-120681452D01*
X74127000Y-120518548D01*
X74095218Y-120358773D01*
X74040636Y-120227000D01*
X74081452Y-120227000D01*
X74241227Y-120195218D01*
X74391731Y-120132877D01*
X74527181Y-120042372D01*
X74550000Y-120019553D01*
X74572819Y-120042372D01*
X74708269Y-120132877D01*
X74858773Y-120195218D01*
X75018548Y-120227000D01*
X75181452Y-120227000D01*
X75341227Y-120195218D01*
X75491731Y-120132877D01*
X75627181Y-120042372D01*
X75650000Y-120019553D01*
X75672819Y-120042372D01*
X75808269Y-120132877D01*
X75958773Y-120195218D01*
X76118548Y-120227000D01*
X76281452Y-120227000D01*
X76441227Y-120195218D01*
X76591731Y-120132877D01*
X76727181Y-120042372D01*
X76750000Y-120019553D01*
X76772819Y-120042372D01*
X76908269Y-120132877D01*
X77058773Y-120195218D01*
X77218548Y-120227000D01*
X77381452Y-120227000D01*
X77541227Y-120195218D01*
X77691731Y-120132877D01*
X77827181Y-120042372D01*
X77850000Y-120019553D01*
X77872819Y-120042372D01*
X78008269Y-120132877D01*
X78158773Y-120195218D01*
X78318548Y-120227000D01*
X78481452Y-120227000D01*
X78641227Y-120195218D01*
X78791731Y-120132877D01*
X78927181Y-120042372D01*
X79042372Y-119927181D01*
X79132877Y-119791731D01*
X79195218Y-119641227D01*
X79227000Y-119481452D01*
X79227000Y-119318548D01*
X79195218Y-119158773D01*
X79132877Y-119008269D01*
X79042372Y-118872819D01*
X78927181Y-118757628D01*
X78791731Y-118667123D01*
X78641227Y-118604782D01*
X78481452Y-118573000D01*
X78318548Y-118573000D01*
X78158773Y-118604782D01*
X78008269Y-118667123D01*
X77872819Y-118757628D01*
X77850000Y-118780447D01*
X77827181Y-118757628D01*
X77691731Y-118667123D01*
X77541227Y-118604782D01*
X77381452Y-118573000D01*
X77218548Y-118573000D01*
X77058773Y-118604782D01*
X76908269Y-118667123D01*
X76772819Y-118757628D01*
X76750000Y-118780447D01*
X76727181Y-118757628D01*
X76591731Y-118667123D01*
X76441227Y-118604782D01*
X76281452Y-118573000D01*
X76118548Y-118573000D01*
X75958773Y-118604782D01*
X75808269Y-118667123D01*
X75672819Y-118757628D01*
X75650000Y-118780447D01*
X75627181Y-118757628D01*
X75491731Y-118667123D01*
X75341227Y-118604782D01*
X75181452Y-118573000D01*
X75018548Y-118573000D01*
X74858773Y-118604782D01*
X74708269Y-118667123D01*
X74572819Y-118757628D01*
X74550000Y-118780447D01*
X74527181Y-118757628D01*
X74391731Y-118667123D01*
X74241227Y-118604782D01*
X74081452Y-118573000D01*
X73918548Y-118573000D01*
X73758773Y-118604782D01*
X73608269Y-118667123D01*
X73472819Y-118757628D01*
X73357628Y-118872819D01*
X73267123Y-119008269D01*
X73204782Y-119158773D01*
X73173000Y-119318548D01*
X73173000Y-119481452D01*
X73204782Y-119641227D01*
X73259364Y-119773000D01*
X73218548Y-119773000D01*
X73058773Y-119804782D01*
X72908269Y-119867123D01*
X72800000Y-119939466D01*
X72691731Y-119867123D01*
X72541227Y-119804782D01*
X72381452Y-119773000D01*
X72218548Y-119773000D01*
X72058773Y-119804782D01*
X71908269Y-119867123D01*
X71772819Y-119957628D01*
X71657628Y-120072819D01*
X71567123Y-120208269D01*
X71504782Y-120358773D01*
X71473000Y-120518548D01*
X65529066Y-120518548D01*
X65529066Y-118900000D01*
X65520822Y-118816293D01*
X65496405Y-118735804D01*
X65456755Y-118661624D01*
X65407726Y-118601882D01*
X65441227Y-118595218D01*
X65591731Y-118532877D01*
X65727181Y-118442372D01*
X65842372Y-118327181D01*
X65932877Y-118191731D01*
X65995218Y-118041227D01*
X66027000Y-117881452D01*
X66027000Y-117718548D01*
X65995218Y-117558773D01*
X65932877Y-117408269D01*
X65842372Y-117272819D01*
X65769553Y-117200000D01*
X65842372Y-117127181D01*
X65932877Y-116991731D01*
X65995218Y-116841227D01*
X66027000Y-116681452D01*
X66027000Y-116518548D01*
X65995218Y-116358773D01*
X65932877Y-116208269D01*
X65842372Y-116072819D01*
X65769553Y-116000000D01*
X65842372Y-115927181D01*
X65932877Y-115791731D01*
X65995218Y-115641227D01*
X66027000Y-115481452D01*
X66027000Y-115318548D01*
X65995218Y-115158773D01*
X65932877Y-115008269D01*
X65842372Y-114872819D01*
X65769553Y-114800000D01*
X65842372Y-114727181D01*
X65932877Y-114591731D01*
X65995218Y-114441227D01*
X66027000Y-114281452D01*
X66027000Y-114118548D01*
X65995218Y-113958773D01*
X65932877Y-113808269D01*
X65842372Y-113672819D01*
X65727181Y-113557628D01*
X65611172Y-113480113D01*
X65646405Y-113414196D01*
X65670822Y-113333707D01*
X65679066Y-113250000D01*
X65679066Y-110750000D01*
X65670822Y-110666293D01*
X65646405Y-110585804D01*
X65606755Y-110511624D01*
X65553395Y-110446605D01*
X65488376Y-110393245D01*
X65414196Y-110353595D01*
X65333707Y-110329178D01*
X65250000Y-110320934D01*
X62750000Y-110320934D01*
X62666293Y-110329178D01*
X62585804Y-110353595D01*
X62511624Y-110393245D01*
X62446605Y-110446605D01*
X62393245Y-110511624D01*
X62353595Y-110585804D01*
X62329178Y-110666293D01*
X62320934Y-110750000D01*
X60452000Y-110750000D01*
X60452000Y-105020135D01*
X60525647Y-104194935D01*
X60628614Y-103818548D01*
X95673000Y-103818548D01*
X95673000Y-103981452D01*
X95704782Y-104141227D01*
X95767123Y-104291731D01*
X95857628Y-104427181D01*
X95880447Y-104450000D01*
X95857628Y-104472819D01*
X95767123Y-104608269D01*
X95704782Y-104758773D01*
X95673000Y-104918548D01*
X95673000Y-105081452D01*
X95704782Y-105241227D01*
X95767123Y-105391731D01*
X95857628Y-105527181D01*
X95972819Y-105642372D01*
X96108269Y-105732877D01*
X96258773Y-105795218D01*
X96418548Y-105827000D01*
X96581452Y-105827000D01*
X96741227Y-105795218D01*
X96891731Y-105732877D01*
X97027181Y-105642372D01*
X97100000Y-105569553D01*
X97172819Y-105642372D01*
X97308269Y-105732877D01*
X97458773Y-105795218D01*
X97618548Y-105827000D01*
X97781452Y-105827000D01*
X97941227Y-105795218D01*
X98091731Y-105732877D01*
X98227181Y-105642372D01*
X98300000Y-105569553D01*
X98372819Y-105642372D01*
X98508269Y-105732877D01*
X98658773Y-105795218D01*
X98818548Y-105827000D01*
X98981452Y-105827000D01*
X99141227Y-105795218D01*
X99291731Y-105732877D01*
X99427181Y-105642372D01*
X99500000Y-105569553D01*
X99572819Y-105642372D01*
X99708269Y-105732877D01*
X99858773Y-105795218D01*
X100018548Y-105827000D01*
X100181452Y-105827000D01*
X100341227Y-105795218D01*
X100491731Y-105732877D01*
X100627181Y-105642372D01*
X100742372Y-105527181D01*
X100832877Y-105391731D01*
X100895218Y-105241227D01*
X100927000Y-105081452D01*
X100927000Y-104918548D01*
X100895218Y-104758773D01*
X100832877Y-104608269D01*
X100742372Y-104472819D01*
X100719553Y-104450000D01*
X100742372Y-104427181D01*
X100832877Y-104291731D01*
X100895218Y-104141227D01*
X100927000Y-103981452D01*
X100927000Y-103818548D01*
X100895218Y-103658773D01*
X100832877Y-103508269D01*
X100742372Y-103372819D01*
X100627181Y-103257628D01*
X100491731Y-103167123D01*
X100341227Y-103104782D01*
X100181452Y-103073000D01*
X100018548Y-103073000D01*
X99858773Y-103104782D01*
X99708269Y-103167123D01*
X99572819Y-103257628D01*
X99500000Y-103330447D01*
X99427181Y-103257628D01*
X99291731Y-103167123D01*
X99141227Y-103104782D01*
X98981452Y-103073000D01*
X98818548Y-103073000D01*
X98658773Y-103104782D01*
X98508269Y-103167123D01*
X98372819Y-103257628D01*
X98300000Y-103330447D01*
X98227181Y-103257628D01*
X98091731Y-103167123D01*
X97941227Y-103104782D01*
X97781452Y-103073000D01*
X97618548Y-103073000D01*
X97458773Y-103104782D01*
X97308269Y-103167123D01*
X97172819Y-103257628D01*
X97100000Y-103330447D01*
X97027181Y-103257628D01*
X96891731Y-103167123D01*
X96741227Y-103104782D01*
X96581452Y-103073000D01*
X96418548Y-103073000D01*
X96258773Y-103104782D01*
X96108269Y-103167123D01*
X95972819Y-103257628D01*
X95857628Y-103372819D01*
X95767123Y-103508269D01*
X95704782Y-103658773D01*
X95673000Y-103818548D01*
X60628614Y-103818548D01*
X60738925Y-103415322D01*
X61086889Y-102685799D01*
X61558548Y-102029416D01*
X61982530Y-101618548D01*
X78873000Y-101618548D01*
X78873000Y-101781452D01*
X78904782Y-101941227D01*
X78967123Y-102091731D01*
X79057628Y-102227181D01*
X79080447Y-102250000D01*
X79057628Y-102272819D01*
X78967123Y-102408269D01*
X78904782Y-102558773D01*
X78873000Y-102718548D01*
X78873000Y-102881452D01*
X78904782Y-103041227D01*
X78967123Y-103191731D01*
X79057628Y-103327181D01*
X79172819Y-103442372D01*
X79308269Y-103532877D01*
X79458773Y-103595218D01*
X79618548Y-103627000D01*
X79781452Y-103627000D01*
X79941227Y-103595218D01*
X80091731Y-103532877D01*
X80227181Y-103442372D01*
X80250000Y-103419553D01*
X80272819Y-103442372D01*
X80408269Y-103532877D01*
X80558773Y-103595218D01*
X80718548Y-103627000D01*
X80881452Y-103627000D01*
X81041227Y-103595218D01*
X81191731Y-103532877D01*
X81327181Y-103442372D01*
X81350000Y-103419553D01*
X81372819Y-103442372D01*
X81508269Y-103532877D01*
X81658773Y-103595218D01*
X81818548Y-103627000D01*
X81981452Y-103627000D01*
X82141227Y-103595218D01*
X82291731Y-103532877D01*
X82427181Y-103442372D01*
X82542372Y-103327181D01*
X82632877Y-103191731D01*
X82695218Y-103041227D01*
X82727000Y-102881452D01*
X82727000Y-102718548D01*
X82695218Y-102558773D01*
X82632877Y-102408269D01*
X82542372Y-102272819D01*
X82519553Y-102250000D01*
X82542372Y-102227181D01*
X82632877Y-102091731D01*
X82695218Y-101941227D01*
X82727000Y-101781452D01*
X82727000Y-101618548D01*
X82695218Y-101458773D01*
X82632877Y-101308269D01*
X82542372Y-101172819D01*
X82427181Y-101057628D01*
X82291731Y-100967123D01*
X82141227Y-100904782D01*
X81981452Y-100873000D01*
X81818548Y-100873000D01*
X81658773Y-100904782D01*
X81508269Y-100967123D01*
X81372819Y-101057628D01*
X81350000Y-101080447D01*
X81327181Y-101057628D01*
X81191731Y-100967123D01*
X81041227Y-100904782D01*
X80881452Y-100873000D01*
X80718548Y-100873000D01*
X80558773Y-100904782D01*
X80408269Y-100967123D01*
X80272819Y-101057628D01*
X80250000Y-101080447D01*
X80227181Y-101057628D01*
X80091731Y-100967123D01*
X79941227Y-100904782D01*
X79781452Y-100873000D01*
X79618548Y-100873000D01*
X79458773Y-100904782D01*
X79308269Y-100967123D01*
X79172819Y-101057628D01*
X79057628Y-101172819D01*
X78967123Y-101308269D01*
X78904782Y-101458773D01*
X78873000Y-101618548D01*
X61982530Y-101618548D01*
X62138983Y-101466935D01*
X62809851Y-101016132D01*
X63549949Y-100691251D01*
X64339355Y-100501731D01*
X65016572Y-100452000D01*
X104979865Y-100452000D01*
X105805065Y-100525647D01*
G04 #@! TA.AperFunction,Conductor*
D21*
G36*
X105805065Y-100525647D02*
G01*
X106584678Y-100738925D01*
X107314201Y-101086889D01*
X107970584Y-101558548D01*
X108533065Y-102138983D01*
X108983868Y-102809851D01*
X109308749Y-103549949D01*
X109498269Y-104339355D01*
X109548000Y-105016572D01*
X109548001Y-134979854D01*
X109474353Y-135805066D01*
X109261075Y-136584678D01*
X108913108Y-137314205D01*
X108441452Y-137970584D01*
X107861017Y-138533065D01*
X107190149Y-138983869D01*
X106450054Y-139308748D01*
X105660647Y-139498269D01*
X104983429Y-139548000D01*
X65020135Y-139548000D01*
X64194934Y-139474353D01*
X63415322Y-139261075D01*
X62685795Y-138913108D01*
X62029416Y-138441452D01*
X61466935Y-137861017D01*
X61016131Y-137190149D01*
X60691252Y-136450054D01*
X60619215Y-136150000D01*
X81720934Y-136150000D01*
X81720934Y-137850000D01*
X81729178Y-137933707D01*
X81753595Y-138014196D01*
X81793245Y-138088376D01*
X81846605Y-138153395D01*
X81911624Y-138206755D01*
X81985804Y-138246405D01*
X82066293Y-138270822D01*
X82150000Y-138279066D01*
X83850000Y-138279066D01*
X83933707Y-138270822D01*
X84014196Y-138246405D01*
X84088376Y-138206755D01*
X84153395Y-138153395D01*
X84206755Y-138088376D01*
X84246405Y-138014196D01*
X84270822Y-137933707D01*
X84279066Y-137850000D01*
X84279066Y-137206544D01*
X84312074Y-137372487D01*
X84408337Y-137604886D01*
X84548089Y-137814040D01*
X84725960Y-137991911D01*
X84935114Y-138131663D01*
X85167513Y-138227926D01*
X85414226Y-138277000D01*
X85665774Y-138277000D01*
X85912487Y-138227926D01*
X86144886Y-138131663D01*
X86354040Y-137991911D01*
X86531911Y-137814040D01*
X86671663Y-137604886D01*
X86767926Y-137372487D01*
X86817000Y-137125774D01*
X86817000Y-136874226D01*
X86767926Y-136627513D01*
X86671663Y-136395114D01*
X86531911Y-136185960D01*
X86354040Y-136008089D01*
X86144886Y-135868337D01*
X85912487Y-135772074D01*
X85665774Y-135723000D01*
X85414226Y-135723000D01*
X85167513Y-135772074D01*
X84935114Y-135868337D01*
X84725960Y-136008089D01*
X84548089Y-136185960D01*
X84408337Y-136395114D01*
X84312074Y-136627513D01*
X84279066Y-136793456D01*
X84279066Y-136150000D01*
X84270822Y-136066293D01*
X84246405Y-135985804D01*
X84206755Y-135911624D01*
X84153395Y-135846605D01*
X84088376Y-135793245D01*
X84014196Y-135753595D01*
X83933707Y-135729178D01*
X83850000Y-135720934D01*
X82150000Y-135720934D01*
X82066293Y-135729178D01*
X81985804Y-135753595D01*
X81911624Y-135793245D01*
X81846605Y-135846605D01*
X81793245Y-135911624D01*
X81753595Y-135985804D01*
X81729178Y-136066293D01*
X81720934Y-136150000D01*
X60619215Y-136150000D01*
X60501731Y-135660647D01*
X60452000Y-134983429D01*
X60452000Y-132150000D01*
X81720934Y-132150000D01*
X81720934Y-133850000D01*
X81729178Y-133933707D01*
X81753595Y-134014196D01*
X81793245Y-134088376D01*
X81846605Y-134153395D01*
X81911624Y-134206755D01*
X81985804Y-134246405D01*
X82066293Y-134270822D01*
X82150000Y-134279066D01*
X83850000Y-134279066D01*
X83933707Y-134270822D01*
X84014196Y-134246405D01*
X84088376Y-134206755D01*
X84153395Y-134153395D01*
X84206755Y-134088376D01*
X84246405Y-134014196D01*
X84270822Y-133933707D01*
X84279066Y-133850000D01*
X84279066Y-133206544D01*
X84312074Y-133372487D01*
X84408337Y-133604886D01*
X84548089Y-133814040D01*
X84725960Y-133991911D01*
X84935114Y-134131663D01*
X85167513Y-134227926D01*
X85414226Y-134277000D01*
X85665774Y-134277000D01*
X85912487Y-134227926D01*
X86144886Y-134131663D01*
X86354040Y-133991911D01*
X86531911Y-133814040D01*
X86671663Y-133604886D01*
X86767926Y-133372487D01*
X86817000Y-133125774D01*
X86817000Y-132874226D01*
X86767926Y-132627513D01*
X86671663Y-132395114D01*
X86531911Y-132185960D01*
X86354040Y-132008089D01*
X86144886Y-131868337D01*
X85912487Y-131772074D01*
X85665774Y-131723000D01*
X85414226Y-131723000D01*
X85167513Y-131772074D01*
X84935114Y-131868337D01*
X84725960Y-132008089D01*
X84548089Y-132185960D01*
X84408337Y-132395114D01*
X84312074Y-132627513D01*
X84279066Y-132793456D01*
X84279066Y-132150000D01*
X84270822Y-132066293D01*
X84246405Y-131985804D01*
X84206755Y-131911624D01*
X84153395Y-131846605D01*
X84088376Y-131793245D01*
X84014196Y-131753595D01*
X83933707Y-131729178D01*
X83850000Y-131720934D01*
X82150000Y-131720934D01*
X82066293Y-131729178D01*
X81985804Y-131753595D01*
X81911624Y-131793245D01*
X81846605Y-131846605D01*
X81793245Y-131911624D01*
X81753595Y-131985804D01*
X81729178Y-132066293D01*
X81720934Y-132150000D01*
X60452000Y-132150000D01*
X60452000Y-128150000D01*
X81720934Y-128150000D01*
X81720934Y-129850000D01*
X81729178Y-129933707D01*
X81753595Y-130014196D01*
X81793245Y-130088376D01*
X81846605Y-130153395D01*
X81911624Y-130206755D01*
X81985804Y-130246405D01*
X82066293Y-130270822D01*
X82150000Y-130279066D01*
X83850000Y-130279066D01*
X83933707Y-130270822D01*
X84014196Y-130246405D01*
X84088376Y-130206755D01*
X84153395Y-130153395D01*
X84206755Y-130088376D01*
X84246405Y-130014196D01*
X84270822Y-129933707D01*
X84279066Y-129850000D01*
X84279066Y-129206544D01*
X84312074Y-129372487D01*
X84408337Y-129604886D01*
X84548089Y-129814040D01*
X84725960Y-129991911D01*
X84935114Y-130131663D01*
X85167513Y-130227926D01*
X85414226Y-130277000D01*
X85665774Y-130277000D01*
X85912487Y-130227926D01*
X86144886Y-130131663D01*
X86354040Y-129991911D01*
X86531911Y-129814040D01*
X86671663Y-129604886D01*
X86767926Y-129372487D01*
X86817000Y-129125774D01*
X86817000Y-128874226D01*
X86767926Y-128627513D01*
X86671663Y-128395114D01*
X86531911Y-128185960D01*
X86354040Y-128008089D01*
X86144886Y-127868337D01*
X85912487Y-127772074D01*
X85665774Y-127723000D01*
X85414226Y-127723000D01*
X85167513Y-127772074D01*
X84935114Y-127868337D01*
X84725960Y-128008089D01*
X84548089Y-128185960D01*
X84408337Y-128395114D01*
X84312074Y-128627513D01*
X84279066Y-128793456D01*
X84279066Y-128150000D01*
X84270822Y-128066293D01*
X84246405Y-127985804D01*
X84206755Y-127911624D01*
X84153395Y-127846605D01*
X84088376Y-127793245D01*
X84014196Y-127753595D01*
X83933707Y-127729178D01*
X83850000Y-127720934D01*
X82150000Y-127720934D01*
X82066293Y-127729178D01*
X81985804Y-127753595D01*
X81911624Y-127793245D01*
X81846605Y-127846605D01*
X81793245Y-127911624D01*
X81753595Y-127985804D01*
X81729178Y-128066293D01*
X81720934Y-128150000D01*
X60452000Y-128150000D01*
X60452000Y-126903774D01*
X107563000Y-126903774D01*
X107563000Y-127096226D01*
X107600546Y-127284980D01*
X107674194Y-127462783D01*
X107781115Y-127622801D01*
X107917199Y-127758885D01*
X108077217Y-127865806D01*
X108255020Y-127939454D01*
X108443774Y-127977000D01*
X108636226Y-127977000D01*
X108824980Y-127939454D01*
X109002783Y-127865806D01*
X109162801Y-127758885D01*
X109298885Y-127622801D01*
X109405806Y-127462783D01*
X109479454Y-127284980D01*
X109517000Y-127096226D01*
X109517000Y-126903774D01*
X109479454Y-126715020D01*
X109405806Y-126537217D01*
X109298885Y-126377199D01*
X109162801Y-126241115D01*
X109002783Y-126134194D01*
X108824980Y-126060546D01*
X108636226Y-126023000D01*
X108443774Y-126023000D01*
X108255020Y-126060546D01*
X108077217Y-126134194D01*
X107917199Y-126241115D01*
X107781115Y-126377199D01*
X107674194Y-126537217D01*
X107600546Y-126715020D01*
X107563000Y-126903774D01*
X60452000Y-126903774D01*
X60452000Y-124150000D01*
X81720934Y-124150000D01*
X81720934Y-125850000D01*
X81729178Y-125933707D01*
X81753595Y-126014196D01*
X81793245Y-126088376D01*
X81846605Y-126153395D01*
X81911624Y-126206755D01*
X81985804Y-126246405D01*
X82066293Y-126270822D01*
X82150000Y-126279066D01*
X83850000Y-126279066D01*
X83933707Y-126270822D01*
X84014196Y-126246405D01*
X84088376Y-126206755D01*
X84153395Y-126153395D01*
X84206755Y-126088376D01*
X84246405Y-126014196D01*
X84270822Y-125933707D01*
X84279066Y-125850000D01*
X84279066Y-125206544D01*
X84312074Y-125372487D01*
X84408337Y-125604886D01*
X84548089Y-125814040D01*
X84725960Y-125991911D01*
X84935114Y-126131663D01*
X85167513Y-126227926D01*
X85414226Y-126277000D01*
X85665774Y-126277000D01*
X85912487Y-126227926D01*
X86144886Y-126131663D01*
X86354040Y-125991911D01*
X86531911Y-125814040D01*
X86671663Y-125604886D01*
X86767926Y-125372487D01*
X86817000Y-125125774D01*
X86817000Y-124874226D01*
X86767926Y-124627513D01*
X86671663Y-124395114D01*
X86531911Y-124185960D01*
X86354040Y-124008089D01*
X86144886Y-123868337D01*
X85912487Y-123772074D01*
X85665774Y-123723000D01*
X85414226Y-123723000D01*
X85167513Y-123772074D01*
X84935114Y-123868337D01*
X84725960Y-124008089D01*
X84548089Y-124185960D01*
X84408337Y-124395114D01*
X84312074Y-124627513D01*
X84279066Y-124793456D01*
X84279066Y-124150000D01*
X84270822Y-124066293D01*
X84246405Y-123985804D01*
X84206755Y-123911624D01*
X84153395Y-123846605D01*
X84088376Y-123793245D01*
X84014196Y-123753595D01*
X83933707Y-123729178D01*
X83850000Y-123720934D01*
X82150000Y-123720934D01*
X82066293Y-123729178D01*
X81985804Y-123753595D01*
X81911624Y-123793245D01*
X81846605Y-123846605D01*
X81793245Y-123911624D01*
X81753595Y-123985804D01*
X81729178Y-124066293D01*
X81720934Y-124150000D01*
X60452000Y-124150000D01*
X60452000Y-122443774D01*
X60483000Y-122443774D01*
X60483000Y-122636226D01*
X60520546Y-122824980D01*
X60594194Y-123002783D01*
X60701115Y-123162801D01*
X60837199Y-123298885D01*
X60997217Y-123405806D01*
X61175020Y-123479454D01*
X61363774Y-123517000D01*
X61556226Y-123517000D01*
X61744980Y-123479454D01*
X61922783Y-123405806D01*
X62082801Y-123298885D01*
X62218885Y-123162801D01*
X62325806Y-123002783D01*
X62399454Y-122824980D01*
X62437000Y-122636226D01*
X62437000Y-122443774D01*
X62399454Y-122255020D01*
X62325806Y-122077217D01*
X62218885Y-121917199D01*
X62082801Y-121781115D01*
X61922783Y-121674194D01*
X61744980Y-121600546D01*
X61556226Y-121563000D01*
X61363774Y-121563000D01*
X61175020Y-121600546D01*
X60997217Y-121674194D01*
X60837199Y-121781115D01*
X60701115Y-121917199D01*
X60594194Y-122077217D01*
X60520546Y-122255020D01*
X60483000Y-122443774D01*
X60452000Y-122443774D01*
X60452000Y-119903774D01*
X60483000Y-119903774D01*
X60483000Y-120096226D01*
X60520546Y-120284980D01*
X60594194Y-120462783D01*
X60701115Y-120622801D01*
X60837199Y-120758885D01*
X60997217Y-120865806D01*
X61175020Y-120939454D01*
X61363774Y-120977000D01*
X61556226Y-120977000D01*
X61744980Y-120939454D01*
X61922783Y-120865806D01*
X62082801Y-120758885D01*
X62218885Y-120622801D01*
X62325806Y-120462783D01*
X62399454Y-120284980D01*
X62437000Y-120096226D01*
X62437000Y-119903774D01*
X62399454Y-119715020D01*
X62325806Y-119537217D01*
X62218885Y-119377199D01*
X62082801Y-119241115D01*
X61922783Y-119134194D01*
X61744980Y-119060546D01*
X61556226Y-119023000D01*
X61363774Y-119023000D01*
X61175020Y-119060546D01*
X60997217Y-119134194D01*
X60837199Y-119241115D01*
X60701115Y-119377199D01*
X60594194Y-119537217D01*
X60520546Y-119715020D01*
X60483000Y-119903774D01*
X60452000Y-119903774D01*
X60452000Y-110750000D01*
X62320934Y-110750000D01*
X62320934Y-113250000D01*
X62329178Y-113333707D01*
X62353595Y-113414196D01*
X62393245Y-113488376D01*
X62446605Y-113553395D01*
X62511624Y-113606755D01*
X62584656Y-113645791D01*
X62557628Y-113672819D01*
X62467123Y-113808269D01*
X62404782Y-113958773D01*
X62373000Y-114118548D01*
X62373000Y-114281452D01*
X62404782Y-114441227D01*
X62467123Y-114591731D01*
X62557628Y-114727181D01*
X62630447Y-114800000D01*
X62557628Y-114872819D01*
X62467123Y-115008269D01*
X62404782Y-115158773D01*
X62373000Y-115318548D01*
X62373000Y-115481452D01*
X62404782Y-115641227D01*
X62467123Y-115791731D01*
X62557628Y-115927181D01*
X62630447Y-116000000D01*
X62557628Y-116072819D01*
X62467123Y-116208269D01*
X62404782Y-116358773D01*
X62373000Y-116518548D01*
X62373000Y-116681452D01*
X62404782Y-116841227D01*
X62467123Y-116991731D01*
X62557628Y-117127181D01*
X62630447Y-117200000D01*
X62557628Y-117272819D01*
X62467123Y-117408269D01*
X62404782Y-117558773D01*
X62373000Y-117718548D01*
X62373000Y-117881452D01*
X62404782Y-118041227D01*
X62467123Y-118191731D01*
X62557628Y-118327181D01*
X62672819Y-118442372D01*
X62755502Y-118497619D01*
X62735804Y-118503595D01*
X62661624Y-118543245D01*
X62596605Y-118596605D01*
X62543245Y-118661624D01*
X62503595Y-118735804D01*
X62479178Y-118816293D01*
X62470934Y-118900000D01*
X62470934Y-121100000D01*
X62479178Y-121183707D01*
X62503595Y-121264196D01*
X62543245Y-121338376D01*
X62596605Y-121403395D01*
X62661624Y-121456755D01*
X62735804Y-121496405D01*
X62816293Y-121520822D01*
X62900000Y-121529066D01*
X65100000Y-121529066D01*
X65183707Y-121520822D01*
X65264196Y-121496405D01*
X65338376Y-121456755D01*
X65403395Y-121403395D01*
X65456755Y-121338376D01*
X65496405Y-121264196D01*
X65520822Y-121183707D01*
X65529066Y-121100000D01*
X65529066Y-120518548D01*
X71473000Y-120518548D01*
X71473000Y-120681452D01*
X71504782Y-120841227D01*
X71567123Y-120991731D01*
X71657628Y-121127181D01*
X71680447Y-121150000D01*
X71657628Y-121172819D01*
X71567123Y-121308269D01*
X71504782Y-121458773D01*
X71473000Y-121618548D01*
X71473000Y-121781452D01*
X71504782Y-121941227D01*
X71567123Y-122091731D01*
X71657628Y-122227181D01*
X71772819Y-122342372D01*
X71908269Y-122432877D01*
X72058773Y-122495218D01*
X72218548Y-122527000D01*
X72381452Y-122527000D01*
X72541227Y-122495218D01*
X72691731Y-122432877D01*
X72800000Y-122360534D01*
X72908269Y-122432877D01*
X73058773Y-122495218D01*
X73218548Y-122527000D01*
X73381452Y-122527000D01*
X73541227Y-122495218D01*
X73691731Y-122432877D01*
X73827181Y-122342372D01*
X73869553Y-122300000D01*
X100373000Y-122300000D01*
X100373000Y-125600000D01*
X100381205Y-125683304D01*
X100405503Y-125763406D01*
X100444962Y-125837228D01*
X100498065Y-125901935D01*
X100562772Y-125955038D01*
X100636594Y-125994497D01*
X100716696Y-126018795D01*
X100800000Y-126027000D01*
X107400000Y-126027000D01*
X107483304Y-126018795D01*
X107563406Y-125994497D01*
X107637228Y-125955038D01*
X107701935Y-125901935D01*
X107755038Y-125837228D01*
X107794497Y-125763406D01*
X107818795Y-125683304D01*
X107827000Y-125600000D01*
X107827000Y-125128686D01*
X107917199Y-125218885D01*
X108077217Y-125325806D01*
X108255020Y-125399454D01*
X108443774Y-125437000D01*
X108636226Y-125437000D01*
X108824980Y-125399454D01*
X109002783Y-125325806D01*
X109162801Y-125218885D01*
X109298885Y-125082801D01*
X109405806Y-124922783D01*
X109479454Y-124744980D01*
X109517000Y-124556226D01*
X109517000Y-124363774D01*
X109479454Y-124175020D01*
X109405806Y-123997217D01*
X109298885Y-123837199D01*
X109162801Y-123701115D01*
X109002783Y-123594194D01*
X108824980Y-123520546D01*
X108636226Y-123483000D01*
X108443774Y-123483000D01*
X108255020Y-123520546D01*
X108077217Y-123594194D01*
X107917199Y-123701115D01*
X107827000Y-123791314D01*
X107827000Y-123255045D01*
X108902441Y-122675961D01*
X109001935Y-122601935D01*
X109055038Y-122537228D01*
X109094497Y-122463406D01*
X109118795Y-122383304D01*
X109127000Y-122300000D01*
X109127000Y-109400000D01*
X109118795Y-109316696D01*
X109094497Y-109236594D01*
X109055038Y-109162772D01*
X109001935Y-109098065D01*
X108937228Y-109044962D01*
X108863406Y-109005503D01*
X108783304Y-108981205D01*
X108700000Y-108973000D01*
X105400000Y-108973000D01*
X105316696Y-108981205D01*
X105236594Y-109005503D01*
X105162772Y-109044962D01*
X105098065Y-109098065D01*
X105044962Y-109162772D01*
X105005503Y-109236594D01*
X104981205Y-109316696D01*
X104973000Y-109400000D01*
X104973000Y-109603447D01*
X104927181Y-109557628D01*
X104791731Y-109467123D01*
X104641227Y-109404782D01*
X104481452Y-109373000D01*
X104318548Y-109373000D01*
X104158773Y-109404782D01*
X104008269Y-109467123D01*
X103872819Y-109557628D01*
X103800000Y-109630447D01*
X103727181Y-109557628D01*
X103591731Y-109467123D01*
X103441227Y-109404782D01*
X103281452Y-109373000D01*
X103118548Y-109373000D01*
X102958773Y-109404782D01*
X102808269Y-109467123D01*
X102672819Y-109557628D01*
X102557628Y-109672819D01*
X102467123Y-109808269D01*
X102404782Y-109958773D01*
X102373000Y-110118548D01*
X102373000Y-110281452D01*
X102404782Y-110441227D01*
X102467123Y-110591731D01*
X102539466Y-110700000D01*
X102467123Y-110808269D01*
X102404782Y-110958773D01*
X102373000Y-111118548D01*
X102373000Y-111281452D01*
X102404782Y-111441227D01*
X102467123Y-111591731D01*
X102539466Y-111700000D01*
X102467123Y-111808269D01*
X102404782Y-111958773D01*
X102373000Y-112118548D01*
X102373000Y-112281452D01*
X102404782Y-112441227D01*
X102467123Y-112591731D01*
X102557628Y-112727181D01*
X102672819Y-112842372D01*
X102808269Y-112932877D01*
X102958773Y-112995218D01*
X103118548Y-113027000D01*
X103281452Y-113027000D01*
X103441227Y-112995218D01*
X103591731Y-112932877D01*
X103727181Y-112842372D01*
X103800000Y-112769553D01*
X103872819Y-112842372D01*
X104008269Y-112932877D01*
X104158773Y-112995218D01*
X104318548Y-113027000D01*
X104481452Y-113027000D01*
X104641227Y-112995218D01*
X104791731Y-112932877D01*
X104927181Y-112842372D01*
X104973000Y-112796553D01*
X104973000Y-121237655D01*
X104408249Y-121873000D01*
X100800000Y-121873000D01*
X100716696Y-121881205D01*
X100636594Y-121905503D01*
X100562772Y-121944962D01*
X100498065Y-121998065D01*
X100444962Y-122062772D01*
X100405503Y-122136594D01*
X100381205Y-122216696D01*
X100373000Y-122300000D01*
X73869553Y-122300000D01*
X73942372Y-122227181D01*
X74032877Y-122091731D01*
X74095218Y-121941227D01*
X74127000Y-121781452D01*
X74127000Y-121618548D01*
X74095218Y-121458773D01*
X74032877Y-121308269D01*
X73942372Y-121172819D01*
X73919553Y-121150000D01*
X73942372Y-121127181D01*
X74032877Y-120991731D01*
X74095218Y-120841227D01*
X74127000Y-120681452D01*
X74127000Y-120518548D01*
X74095218Y-120358773D01*
X74040636Y-120227000D01*
X74081452Y-120227000D01*
X74241227Y-120195218D01*
X74391731Y-120132877D01*
X74527181Y-120042372D01*
X74550000Y-120019553D01*
X74572819Y-120042372D01*
X74708269Y-120132877D01*
X74858773Y-120195218D01*
X75018548Y-120227000D01*
X75181452Y-120227000D01*
X75341227Y-120195218D01*
X75491731Y-120132877D01*
X75627181Y-120042372D01*
X75650000Y-120019553D01*
X75672819Y-120042372D01*
X75808269Y-120132877D01*
X75958773Y-120195218D01*
X76118548Y-120227000D01*
X76281452Y-120227000D01*
X76441227Y-120195218D01*
X76591731Y-120132877D01*
X76727181Y-120042372D01*
X76750000Y-120019553D01*
X76772819Y-120042372D01*
X76908269Y-120132877D01*
X77058773Y-120195218D01*
X77218548Y-120227000D01*
X77381452Y-120227000D01*
X77541227Y-120195218D01*
X77691731Y-120132877D01*
X77827181Y-120042372D01*
X77850000Y-120019553D01*
X77872819Y-120042372D01*
X78008269Y-120132877D01*
X78158773Y-120195218D01*
X78318548Y-120227000D01*
X78481452Y-120227000D01*
X78641227Y-120195218D01*
X78791731Y-120132877D01*
X78927181Y-120042372D01*
X79042372Y-119927181D01*
X79132877Y-119791731D01*
X79195218Y-119641227D01*
X79227000Y-119481452D01*
X79227000Y-119318548D01*
X79195218Y-119158773D01*
X79132877Y-119008269D01*
X79042372Y-118872819D01*
X78927181Y-118757628D01*
X78791731Y-118667123D01*
X78641227Y-118604782D01*
X78481452Y-118573000D01*
X78318548Y-118573000D01*
X78158773Y-118604782D01*
X78008269Y-118667123D01*
X77872819Y-118757628D01*
X77850000Y-118780447D01*
X77827181Y-118757628D01*
X77691731Y-118667123D01*
X77541227Y-118604782D01*
X77381452Y-118573000D01*
X77218548Y-118573000D01*
X77058773Y-118604782D01*
X76908269Y-118667123D01*
X76772819Y-118757628D01*
X76750000Y-118780447D01*
X76727181Y-118757628D01*
X76591731Y-118667123D01*
X76441227Y-118604782D01*
X76281452Y-118573000D01*
X76118548Y-118573000D01*
X75958773Y-118604782D01*
X75808269Y-118667123D01*
X75672819Y-118757628D01*
X75650000Y-118780447D01*
X75627181Y-118757628D01*
X75491731Y-118667123D01*
X75341227Y-118604782D01*
X75181452Y-118573000D01*
X75018548Y-118573000D01*
X74858773Y-118604782D01*
X74708269Y-118667123D01*
X74572819Y-118757628D01*
X74550000Y-118780447D01*
X74527181Y-118757628D01*
X74391731Y-118667123D01*
X74241227Y-118604782D01*
X74081452Y-118573000D01*
X73918548Y-118573000D01*
X73758773Y-118604782D01*
X73608269Y-118667123D01*
X73472819Y-118757628D01*
X73357628Y-118872819D01*
X73267123Y-119008269D01*
X73204782Y-119158773D01*
X73173000Y-119318548D01*
X73173000Y-119481452D01*
X73204782Y-119641227D01*
X73259364Y-119773000D01*
X73218548Y-119773000D01*
X73058773Y-119804782D01*
X72908269Y-119867123D01*
X72800000Y-119939466D01*
X72691731Y-119867123D01*
X72541227Y-119804782D01*
X72381452Y-119773000D01*
X72218548Y-119773000D01*
X72058773Y-119804782D01*
X71908269Y-119867123D01*
X71772819Y-119957628D01*
X71657628Y-120072819D01*
X71567123Y-120208269D01*
X71504782Y-120358773D01*
X71473000Y-120518548D01*
X65529066Y-120518548D01*
X65529066Y-118900000D01*
X65520822Y-118816293D01*
X65496405Y-118735804D01*
X65456755Y-118661624D01*
X65407726Y-118601882D01*
X65441227Y-118595218D01*
X65591731Y-118532877D01*
X65727181Y-118442372D01*
X65842372Y-118327181D01*
X65932877Y-118191731D01*
X65995218Y-118041227D01*
X66027000Y-117881452D01*
X66027000Y-117718548D01*
X65995218Y-117558773D01*
X65932877Y-117408269D01*
X65842372Y-117272819D01*
X65769553Y-117200000D01*
X65842372Y-117127181D01*
X65932877Y-116991731D01*
X65995218Y-116841227D01*
X66027000Y-116681452D01*
X66027000Y-116518548D01*
X65995218Y-116358773D01*
X65932877Y-116208269D01*
X65842372Y-116072819D01*
X65769553Y-116000000D01*
X65842372Y-115927181D01*
X65932877Y-115791731D01*
X65995218Y-115641227D01*
X66027000Y-115481452D01*
X66027000Y-115318548D01*
X65995218Y-115158773D01*
X65932877Y-115008269D01*
X65842372Y-114872819D01*
X65769553Y-114800000D01*
X65842372Y-114727181D01*
X65932877Y-114591731D01*
X65995218Y-114441227D01*
X66027000Y-114281452D01*
X66027000Y-114118548D01*
X65995218Y-113958773D01*
X65932877Y-113808269D01*
X65842372Y-113672819D01*
X65727181Y-113557628D01*
X65611172Y-113480113D01*
X65646405Y-113414196D01*
X65670822Y-113333707D01*
X65679066Y-113250000D01*
X65679066Y-110750000D01*
X65670822Y-110666293D01*
X65646405Y-110585804D01*
X65606755Y-110511624D01*
X65553395Y-110446605D01*
X65488376Y-110393245D01*
X65414196Y-110353595D01*
X65333707Y-110329178D01*
X65250000Y-110320934D01*
X62750000Y-110320934D01*
X62666293Y-110329178D01*
X62585804Y-110353595D01*
X62511624Y-110393245D01*
X62446605Y-110446605D01*
X62393245Y-110511624D01*
X62353595Y-110585804D01*
X62329178Y-110666293D01*
X62320934Y-110750000D01*
X60452000Y-110750000D01*
X60452000Y-105020135D01*
X60525647Y-104194935D01*
X60628614Y-103818548D01*
X95673000Y-103818548D01*
X95673000Y-103981452D01*
X95704782Y-104141227D01*
X95767123Y-104291731D01*
X95857628Y-104427181D01*
X95880447Y-104450000D01*
X95857628Y-104472819D01*
X95767123Y-104608269D01*
X95704782Y-104758773D01*
X95673000Y-104918548D01*
X95673000Y-105081452D01*
X95704782Y-105241227D01*
X95767123Y-105391731D01*
X95857628Y-105527181D01*
X95972819Y-105642372D01*
X96108269Y-105732877D01*
X96258773Y-105795218D01*
X96418548Y-105827000D01*
X96581452Y-105827000D01*
X96741227Y-105795218D01*
X96891731Y-105732877D01*
X97027181Y-105642372D01*
X97100000Y-105569553D01*
X97172819Y-105642372D01*
X97308269Y-105732877D01*
X97458773Y-105795218D01*
X97618548Y-105827000D01*
X97781452Y-105827000D01*
X97941227Y-105795218D01*
X98091731Y-105732877D01*
X98227181Y-105642372D01*
X98300000Y-105569553D01*
X98372819Y-105642372D01*
X98508269Y-105732877D01*
X98658773Y-105795218D01*
X98818548Y-105827000D01*
X98981452Y-105827000D01*
X99141227Y-105795218D01*
X99291731Y-105732877D01*
X99427181Y-105642372D01*
X99500000Y-105569553D01*
X99572819Y-105642372D01*
X99708269Y-105732877D01*
X99858773Y-105795218D01*
X100018548Y-105827000D01*
X100181452Y-105827000D01*
X100341227Y-105795218D01*
X100491731Y-105732877D01*
X100627181Y-105642372D01*
X100742372Y-105527181D01*
X100832877Y-105391731D01*
X100895218Y-105241227D01*
X100927000Y-105081452D01*
X100927000Y-104918548D01*
X100895218Y-104758773D01*
X100832877Y-104608269D01*
X100742372Y-104472819D01*
X100719553Y-104450000D01*
X100742372Y-104427181D01*
X100832877Y-104291731D01*
X100895218Y-104141227D01*
X100927000Y-103981452D01*
X100927000Y-103818548D01*
X100895218Y-103658773D01*
X100832877Y-103508269D01*
X100742372Y-103372819D01*
X100627181Y-103257628D01*
X100491731Y-103167123D01*
X100341227Y-103104782D01*
X100181452Y-103073000D01*
X100018548Y-103073000D01*
X99858773Y-103104782D01*
X99708269Y-103167123D01*
X99572819Y-103257628D01*
X99500000Y-103330447D01*
X99427181Y-103257628D01*
X99291731Y-103167123D01*
X99141227Y-103104782D01*
X98981452Y-103073000D01*
X98818548Y-103073000D01*
X98658773Y-103104782D01*
X98508269Y-103167123D01*
X98372819Y-103257628D01*
X98300000Y-103330447D01*
X98227181Y-103257628D01*
X98091731Y-103167123D01*
X97941227Y-103104782D01*
X97781452Y-103073000D01*
X97618548Y-103073000D01*
X97458773Y-103104782D01*
X97308269Y-103167123D01*
X97172819Y-103257628D01*
X97100000Y-103330447D01*
X97027181Y-103257628D01*
X96891731Y-103167123D01*
X96741227Y-103104782D01*
X96581452Y-103073000D01*
X96418548Y-103073000D01*
X96258773Y-103104782D01*
X96108269Y-103167123D01*
X95972819Y-103257628D01*
X95857628Y-103372819D01*
X95767123Y-103508269D01*
X95704782Y-103658773D01*
X95673000Y-103818548D01*
X60628614Y-103818548D01*
X60738925Y-103415322D01*
X61086889Y-102685799D01*
X61558548Y-102029416D01*
X61982530Y-101618548D01*
X78873000Y-101618548D01*
X78873000Y-101781452D01*
X78904782Y-101941227D01*
X78967123Y-102091731D01*
X79057628Y-102227181D01*
X79080447Y-102250000D01*
X79057628Y-102272819D01*
X78967123Y-102408269D01*
X78904782Y-102558773D01*
X78873000Y-102718548D01*
X78873000Y-102881452D01*
X78904782Y-103041227D01*
X78967123Y-103191731D01*
X79057628Y-103327181D01*
X79172819Y-103442372D01*
X79308269Y-103532877D01*
X79458773Y-103595218D01*
X79618548Y-103627000D01*
X79781452Y-103627000D01*
X79941227Y-103595218D01*
X80091731Y-103532877D01*
X80227181Y-103442372D01*
X80250000Y-103419553D01*
X80272819Y-103442372D01*
X80408269Y-103532877D01*
X80558773Y-103595218D01*
X80718548Y-103627000D01*
X80881452Y-103627000D01*
X81041227Y-103595218D01*
X81191731Y-103532877D01*
X81327181Y-103442372D01*
X81350000Y-103419553D01*
X81372819Y-103442372D01*
X81508269Y-103532877D01*
X81658773Y-103595218D01*
X81818548Y-103627000D01*
X81981452Y-103627000D01*
X82141227Y-103595218D01*
X82291731Y-103532877D01*
X82427181Y-103442372D01*
X82542372Y-103327181D01*
X82632877Y-103191731D01*
X82695218Y-103041227D01*
X82727000Y-102881452D01*
X82727000Y-102718548D01*
X82695218Y-102558773D01*
X82632877Y-102408269D01*
X82542372Y-102272819D01*
X82519553Y-102250000D01*
X82542372Y-102227181D01*
X82632877Y-102091731D01*
X82695218Y-101941227D01*
X82727000Y-101781452D01*
X82727000Y-101618548D01*
X82695218Y-101458773D01*
X82632877Y-101308269D01*
X82542372Y-101172819D01*
X82427181Y-101057628D01*
X82291731Y-100967123D01*
X82141227Y-100904782D01*
X81981452Y-100873000D01*
X81818548Y-100873000D01*
X81658773Y-100904782D01*
X81508269Y-100967123D01*
X81372819Y-101057628D01*
X81350000Y-101080447D01*
X81327181Y-101057628D01*
X81191731Y-100967123D01*
X81041227Y-100904782D01*
X80881452Y-100873000D01*
X80718548Y-100873000D01*
X80558773Y-100904782D01*
X80408269Y-100967123D01*
X80272819Y-101057628D01*
X80250000Y-101080447D01*
X80227181Y-101057628D01*
X80091731Y-100967123D01*
X79941227Y-100904782D01*
X79781452Y-100873000D01*
X79618548Y-100873000D01*
X79458773Y-100904782D01*
X79308269Y-100967123D01*
X79172819Y-101057628D01*
X79057628Y-101172819D01*
X78967123Y-101308269D01*
X78904782Y-101458773D01*
X78873000Y-101618548D01*
X61982530Y-101618548D01*
X62138983Y-101466935D01*
X62809851Y-101016132D01*
X63549949Y-100691251D01*
X64339355Y-100501731D01*
X65016572Y-100452000D01*
X104979865Y-100452000D01*
X105805065Y-100525647D01*
G37*
G04 #@! TD.AperFunction*
D20*
X108573000Y-122224143D02*
X107339789Y-122888180D01*
X107319131Y-122902075D01*
X107301581Y-122919734D01*
X107287813Y-122940476D01*
X107278356Y-122963507D01*
X107273000Y-123000000D01*
X107273000Y-125473000D01*
X107120978Y-125473000D01*
X107100000Y-125470934D01*
X104900000Y-125470934D01*
X104879022Y-125473000D01*
X100927000Y-125473000D01*
X100927000Y-122427000D01*
X104600000Y-122427000D01*
X104624776Y-122424560D01*
X104648601Y-122417333D01*
X104670557Y-122405597D01*
X104694921Y-122384374D01*
X105494921Y-121484374D01*
X105509558Y-121464235D01*
X105519984Y-121441627D01*
X105525800Y-121417419D01*
X105527000Y-121400000D01*
X105527000Y-109527000D01*
X108573000Y-109527000D01*
X108573000Y-122224143D01*
G04 #@! TA.AperFunction,Conductor*
D21*
G36*
X108573000Y-122224143D02*
G01*
X107339789Y-122888180D01*
X107319131Y-122902075D01*
X107301581Y-122919734D01*
X107287813Y-122940476D01*
X107278356Y-122963507D01*
X107273000Y-123000000D01*
X107273000Y-125473000D01*
X107120978Y-125473000D01*
X107100000Y-125470934D01*
X104900000Y-125470934D01*
X104879022Y-125473000D01*
X100927000Y-125473000D01*
X100927000Y-122427000D01*
X104600000Y-122427000D01*
X104624776Y-122424560D01*
X104648601Y-122417333D01*
X104670557Y-122405597D01*
X104694921Y-122384374D01*
X105494921Y-121484374D01*
X105509558Y-121464235D01*
X105519984Y-121441627D01*
X105525800Y-121417419D01*
X105527000Y-121400000D01*
X105527000Y-109527000D01*
X108573000Y-109527000D01*
X108573000Y-122224143D01*
G37*
G04 #@! TD.AperFunction*
M02*
