G04 #@! TF.GenerationSoftware,KiCad,Pcbnew,(5.1.9)-1*
G04 #@! TF.CreationDate,2021-04-25T19:06:47+03:00*
G04 #@! TF.ProjectId,TPS5430_Board_Rev_1.0,54505335-3433-4305-9f42-6f6172645f52,rev?*
G04 #@! TF.SameCoordinates,Original*
G04 #@! TF.FileFunction,Copper,L1,Top*
G04 #@! TF.FilePolarity,Positive*
%FSLAX46Y46*%
G04 Gerber Fmt 4.6, Leading zero omitted, Abs format (unit mm)*
G04 Created by KiCad (PCBNEW (5.1.9)-1) date 2021-04-25 19:06:47*
%MOMM*%
%LPD*%
G01*
G04 APERTURE LIST*
G04 #@! TA.AperFunction,ComponentPad*
%ADD10C,0.600000*%
G04 #@! TD*
G04 #@! TA.AperFunction,SMDPad,CuDef*
%ADD11R,1.550000X0.600000*%
G04 #@! TD*
G04 #@! TA.AperFunction,SMDPad,CuDef*
%ADD12R,2.950000X4.500000*%
G04 #@! TD*
G04 #@! TA.AperFunction,SMDPad,CuDef*
%ADD13R,2.600000X3.100000*%
G04 #@! TD*
G04 #@! TA.AperFunction,ComponentPad*
%ADD14R,2.500000X2.500000*%
G04 #@! TD*
G04 #@! TA.AperFunction,SMDPad,CuDef*
%ADD15R,5.400000X4.900000*%
G04 #@! TD*
G04 #@! TA.AperFunction,ComponentPad*
%ADD16O,1.700000X1.700000*%
G04 #@! TD*
G04 #@! TA.AperFunction,ComponentPad*
%ADD17R,1.700000X1.700000*%
G04 #@! TD*
G04 #@! TA.AperFunction,ComponentPad*
%ADD18C,2.200000*%
G04 #@! TD*
G04 #@! TA.AperFunction,ComponentPad*
%ADD19R,2.200000X2.200000*%
G04 #@! TD*
G04 #@! TA.AperFunction,ComponentPad*
%ADD20C,0.800000*%
G04 #@! TD*
G04 #@! TA.AperFunction,ComponentPad*
%ADD21C,6.400000*%
G04 #@! TD*
G04 #@! TA.AperFunction,SMDPad,CuDef*
%ADD22R,4.500000X3.300000*%
G04 #@! TD*
G04 #@! TA.AperFunction,ViaPad*
%ADD23C,0.800000*%
G04 #@! TD*
G04 #@! TA.AperFunction,Conductor*
%ADD24C,0.600000*%
G04 #@! TD*
G04 #@! TA.AperFunction,Conductor*
%ADD25C,0.500000*%
G04 #@! TD*
G04 #@! TA.AperFunction,Conductor*
%ADD26C,0.254000*%
G04 #@! TD*
G04 #@! TA.AperFunction,Conductor*
%ADD27C,0.100000*%
G04 #@! TD*
G04 APERTURE END LIST*
D10*
X91900000Y-119435000D03*
X91900000Y-118335000D03*
X90700000Y-118335000D03*
X90700000Y-119435000D03*
X91900000Y-115835000D03*
X91900000Y-117035000D03*
X90700000Y-117035000D03*
X90700000Y-115835000D03*
D11*
X94000000Y-115730000D03*
X94000000Y-117000000D03*
X94000000Y-118270000D03*
X94000000Y-119540000D03*
X88600000Y-119540000D03*
X88600000Y-118270000D03*
X88600000Y-117000000D03*
X88600000Y-115730000D03*
D12*
X91300000Y-117635000D03*
D13*
X91300000Y-117635000D03*
D14*
X64000000Y-112000000D03*
X71000000Y-135000000D03*
X98000000Y-135000000D03*
X107000000Y-111000000D03*
G04 #@! TA.AperFunction,SMDPad,CuDef*
G36*
G01*
X93200000Y-128450001D02*
X93200000Y-127549999D01*
G75*
G02*
X93449999Y-127300000I249999J0D01*
G01*
X94150001Y-127300000D01*
G75*
G02*
X94400000Y-127549999I0J-249999D01*
G01*
X94400000Y-128450001D01*
G75*
G02*
X94150001Y-128700000I-249999J0D01*
G01*
X93449999Y-128700000D01*
G75*
G02*
X93200000Y-128450001I0J249999D01*
G01*
G37*
G04 #@! TD.AperFunction*
G04 #@! TA.AperFunction,SMDPad,CuDef*
G36*
G01*
X91200000Y-128450001D02*
X91200000Y-127549999D01*
G75*
G02*
X91449999Y-127300000I249999J0D01*
G01*
X92150001Y-127300000D01*
G75*
G02*
X92400000Y-127549999I0J-249999D01*
G01*
X92400000Y-128450001D01*
G75*
G02*
X92150001Y-128700000I-249999J0D01*
G01*
X91449999Y-128700000D01*
G75*
G02*
X91200000Y-128450001I0J249999D01*
G01*
G37*
G04 #@! TD.AperFunction*
G04 #@! TA.AperFunction,SMDPad,CuDef*
G36*
G01*
X93200000Y-126450001D02*
X93200000Y-125549999D01*
G75*
G02*
X93449999Y-125300000I249999J0D01*
G01*
X94150001Y-125300000D01*
G75*
G02*
X94400000Y-125549999I0J-249999D01*
G01*
X94400000Y-126450001D01*
G75*
G02*
X94150001Y-126700000I-249999J0D01*
G01*
X93449999Y-126700000D01*
G75*
G02*
X93200000Y-126450001I0J249999D01*
G01*
G37*
G04 #@! TD.AperFunction*
G04 #@! TA.AperFunction,SMDPad,CuDef*
G36*
G01*
X91200000Y-126450001D02*
X91200000Y-125549999D01*
G75*
G02*
X91449999Y-125300000I249999J0D01*
G01*
X92150001Y-125300000D01*
G75*
G02*
X92400000Y-125549999I0J-249999D01*
G01*
X92400000Y-126450001D01*
G75*
G02*
X92150001Y-126700000I-249999J0D01*
G01*
X91449999Y-126700000D01*
G75*
G02*
X91200000Y-126450001I0J249999D01*
G01*
G37*
G04 #@! TD.AperFunction*
G04 #@! TA.AperFunction,SMDPad,CuDef*
G36*
G01*
X93200000Y-124450001D02*
X93200000Y-123549999D01*
G75*
G02*
X93449999Y-123300000I249999J0D01*
G01*
X94150001Y-123300000D01*
G75*
G02*
X94400000Y-123549999I0J-249999D01*
G01*
X94400000Y-124450001D01*
G75*
G02*
X94150001Y-124700000I-249999J0D01*
G01*
X93449999Y-124700000D01*
G75*
G02*
X93200000Y-124450001I0J249999D01*
G01*
G37*
G04 #@! TD.AperFunction*
G04 #@! TA.AperFunction,SMDPad,CuDef*
G36*
G01*
X91200000Y-124450001D02*
X91200000Y-123549999D01*
G75*
G02*
X91449999Y-123300000I249999J0D01*
G01*
X92150001Y-123300000D01*
G75*
G02*
X92400000Y-123549999I0J-249999D01*
G01*
X92400000Y-124450001D01*
G75*
G02*
X92150001Y-124700000I-249999J0D01*
G01*
X91449999Y-124700000D01*
G75*
G02*
X91200000Y-124450001I0J249999D01*
G01*
G37*
G04 #@! TD.AperFunction*
G04 #@! TA.AperFunction,SMDPad,CuDef*
G36*
G01*
X93200000Y-122450001D02*
X93200000Y-121549999D01*
G75*
G02*
X93449999Y-121300000I249999J0D01*
G01*
X94150001Y-121300000D01*
G75*
G02*
X94400000Y-121549999I0J-249999D01*
G01*
X94400000Y-122450001D01*
G75*
G02*
X94150001Y-122700000I-249999J0D01*
G01*
X93449999Y-122700000D01*
G75*
G02*
X93200000Y-122450001I0J249999D01*
G01*
G37*
G04 #@! TD.AperFunction*
G04 #@! TA.AperFunction,SMDPad,CuDef*
G36*
G01*
X91200000Y-122450001D02*
X91200000Y-121549999D01*
G75*
G02*
X91449999Y-121300000I249999J0D01*
G01*
X92150001Y-121300000D01*
G75*
G02*
X92400000Y-121549999I0J-249999D01*
G01*
X92400000Y-122450001D01*
G75*
G02*
X92150001Y-122700000I-249999J0D01*
G01*
X91449999Y-122700000D01*
G75*
G02*
X91200000Y-122450001I0J249999D01*
G01*
G37*
G04 #@! TD.AperFunction*
G04 #@! TA.AperFunction,SMDPad,CuDef*
G36*
G01*
X86400000Y-122450001D02*
X86400000Y-121549999D01*
G75*
G02*
X86649999Y-121300000I249999J0D01*
G01*
X87350001Y-121300000D01*
G75*
G02*
X87600000Y-121549999I0J-249999D01*
G01*
X87600000Y-122450001D01*
G75*
G02*
X87350001Y-122700000I-249999J0D01*
G01*
X86649999Y-122700000D01*
G75*
G02*
X86400000Y-122450001I0J249999D01*
G01*
G37*
G04 #@! TD.AperFunction*
G04 #@! TA.AperFunction,SMDPad,CuDef*
G36*
G01*
X84400000Y-122450001D02*
X84400000Y-121549999D01*
G75*
G02*
X84649999Y-121300000I249999J0D01*
G01*
X85350001Y-121300000D01*
G75*
G02*
X85600000Y-121549999I0J-249999D01*
G01*
X85600000Y-122450001D01*
G75*
G02*
X85350001Y-122700000I-249999J0D01*
G01*
X84649999Y-122700000D01*
G75*
G02*
X84400000Y-122450001I0J249999D01*
G01*
G37*
G04 #@! TD.AperFunction*
D15*
X76000000Y-115900000D03*
X76000000Y-104100000D03*
D16*
X85540000Y-137000000D03*
D17*
X83000000Y-137000000D03*
D16*
X85540000Y-133000000D03*
D17*
X83000000Y-133000000D03*
D16*
X85540000Y-129000000D03*
D17*
X83000000Y-129000000D03*
D18*
X64000000Y-122540000D03*
D19*
X64000000Y-120000000D03*
D16*
X85540000Y-125000000D03*
D17*
X83000000Y-125000000D03*
D18*
X106000000Y-124460000D03*
D19*
X106000000Y-127000000D03*
D20*
X66697056Y-133302944D03*
X65000000Y-132600000D03*
X63302944Y-133302944D03*
X62600000Y-135000000D03*
X63302944Y-136697056D03*
X65000000Y-137400000D03*
X66697056Y-136697056D03*
X67400000Y-135000000D03*
D21*
X65000000Y-135000000D03*
D20*
X106597056Y-103302944D03*
X104900000Y-102600000D03*
X103202944Y-103302944D03*
X102500000Y-105000000D03*
X103202944Y-106697056D03*
X104900000Y-107400000D03*
X106597056Y-106697056D03*
X107300000Y-105000000D03*
D21*
X104900000Y-105000000D03*
D20*
X106697056Y-133302944D03*
X105000000Y-132600000D03*
X103302944Y-133302944D03*
X102600000Y-135000000D03*
X103302944Y-136697056D03*
X105000000Y-137400000D03*
X106697056Y-136697056D03*
X107400000Y-135000000D03*
D21*
X105000000Y-135000000D03*
D20*
X66697056Y-103302944D03*
X65000000Y-102600000D03*
X63302944Y-103302944D03*
X62600000Y-105000000D03*
X63302944Y-106697056D03*
X65000000Y-107400000D03*
X66697056Y-106697056D03*
X67400000Y-105000000D03*
D21*
X65000000Y-105000000D03*
D22*
X89600000Y-109000000D03*
X98400000Y-109000000D03*
G04 #@! TA.AperFunction,SMDPad,CuDef*
G36*
G01*
X105899997Y-117900000D02*
X108100003Y-117900000D01*
G75*
G02*
X108350000Y-118149997I0J-249997D01*
G01*
X108350000Y-118975003D01*
G75*
G02*
X108100003Y-119225000I-249997J0D01*
G01*
X105899997Y-119225000D01*
G75*
G02*
X105650000Y-118975003I0J249997D01*
G01*
X105650000Y-118149997D01*
G75*
G02*
X105899997Y-117900000I249997J0D01*
G01*
G37*
G04 #@! TD.AperFunction*
G04 #@! TA.AperFunction,SMDPad,CuDef*
G36*
G01*
X105899997Y-114775000D02*
X108100003Y-114775000D01*
G75*
G02*
X108350000Y-115024997I0J-249997D01*
G01*
X108350000Y-115850003D01*
G75*
G02*
X108100003Y-116100000I-249997J0D01*
G01*
X105899997Y-116100000D01*
G75*
G02*
X105650000Y-115850003I0J249997D01*
G01*
X105650000Y-115024997D01*
G75*
G02*
X105899997Y-114775000I249997J0D01*
G01*
G37*
G04 #@! TD.AperFunction*
G04 #@! TA.AperFunction,SMDPad,CuDef*
G36*
G01*
X74450000Y-127050000D02*
X75550000Y-127050000D01*
G75*
G02*
X75800000Y-127300000I0J-250000D01*
G01*
X75800000Y-130300000D01*
G75*
G02*
X75550000Y-130550000I-250000J0D01*
G01*
X74450000Y-130550000D01*
G75*
G02*
X74200000Y-130300000I0J250000D01*
G01*
X74200000Y-127300000D01*
G75*
G02*
X74450000Y-127050000I250000J0D01*
G01*
G37*
G04 #@! TD.AperFunction*
G04 #@! TA.AperFunction,SMDPad,CuDef*
G36*
G01*
X74450000Y-121450000D02*
X75550000Y-121450000D01*
G75*
G02*
X75800000Y-121700000I0J-250000D01*
G01*
X75800000Y-124700000D01*
G75*
G02*
X75550000Y-124950000I-250000J0D01*
G01*
X74450000Y-124950000D01*
G75*
G02*
X74200000Y-124700000I0J250000D01*
G01*
X74200000Y-121700000D01*
G75*
G02*
X74450000Y-121450000I250000J0D01*
G01*
G37*
G04 #@! TD.AperFunction*
G04 #@! TA.AperFunction,SMDPad,CuDef*
G36*
G01*
X84525000Y-114450000D02*
X85475000Y-114450000D01*
G75*
G02*
X85725000Y-114700000I0J-250000D01*
G01*
X85725000Y-115375000D01*
G75*
G02*
X85475000Y-115625000I-250000J0D01*
G01*
X84525000Y-115625000D01*
G75*
G02*
X84275000Y-115375000I0J250000D01*
G01*
X84275000Y-114700000D01*
G75*
G02*
X84525000Y-114450000I250000J0D01*
G01*
G37*
G04 #@! TD.AperFunction*
G04 #@! TA.AperFunction,SMDPad,CuDef*
G36*
G01*
X84525000Y-112375000D02*
X85475000Y-112375000D01*
G75*
G02*
X85725000Y-112625000I0J-250000D01*
G01*
X85725000Y-113300000D01*
G75*
G02*
X85475000Y-113550000I-250000J0D01*
G01*
X84525000Y-113550000D01*
G75*
G02*
X84275000Y-113300000I0J250000D01*
G01*
X84275000Y-112625000D01*
G75*
G02*
X84525000Y-112375000I250000J0D01*
G01*
G37*
G04 #@! TD.AperFunction*
G04 #@! TA.AperFunction,SMDPad,CuDef*
G36*
G01*
X101899997Y-117900000D02*
X104100003Y-117900000D01*
G75*
G02*
X104350000Y-118149997I0J-249997D01*
G01*
X104350000Y-118975003D01*
G75*
G02*
X104100003Y-119225000I-249997J0D01*
G01*
X101899997Y-119225000D01*
G75*
G02*
X101650000Y-118975003I0J249997D01*
G01*
X101650000Y-118149997D01*
G75*
G02*
X101899997Y-117900000I249997J0D01*
G01*
G37*
G04 #@! TD.AperFunction*
G04 #@! TA.AperFunction,SMDPad,CuDef*
G36*
G01*
X101899997Y-114775000D02*
X104100003Y-114775000D01*
G75*
G02*
X104350000Y-115024997I0J-249997D01*
G01*
X104350000Y-115850003D01*
G75*
G02*
X104100003Y-116100000I-249997J0D01*
G01*
X101899997Y-116100000D01*
G75*
G02*
X101650000Y-115850003I0J249997D01*
G01*
X101650000Y-115024997D01*
G75*
G02*
X101899997Y-114775000I249997J0D01*
G01*
G37*
G04 #@! TD.AperFunction*
G04 #@! TA.AperFunction,SMDPad,CuDef*
G36*
G01*
X97899997Y-117900000D02*
X100100003Y-117900000D01*
G75*
G02*
X100350000Y-118149997I0J-249997D01*
G01*
X100350000Y-118975003D01*
G75*
G02*
X100100003Y-119225000I-249997J0D01*
G01*
X97899997Y-119225000D01*
G75*
G02*
X97650000Y-118975003I0J249997D01*
G01*
X97650000Y-118149997D01*
G75*
G02*
X97899997Y-117900000I249997J0D01*
G01*
G37*
G04 #@! TD.AperFunction*
G04 #@! TA.AperFunction,SMDPad,CuDef*
G36*
G01*
X97899997Y-114775000D02*
X100100003Y-114775000D01*
G75*
G02*
X100350000Y-115024997I0J-249997D01*
G01*
X100350000Y-115850003D01*
G75*
G02*
X100100003Y-116100000I-249997J0D01*
G01*
X97899997Y-116100000D01*
G75*
G02*
X97650000Y-115850003I0J249997D01*
G01*
X97650000Y-115024997D01*
G75*
G02*
X97899997Y-114775000I249997J0D01*
G01*
G37*
G04 #@! TD.AperFunction*
D23*
X75000000Y-131600000D03*
X99500000Y-120000000D03*
X103400000Y-120000000D03*
X98500000Y-120000000D03*
X102400000Y-120000000D03*
X86200000Y-109700000D03*
X86200000Y-108300000D03*
X85000000Y-108300000D03*
X85000000Y-109700000D03*
X83800000Y-109700000D03*
X83800000Y-108300000D03*
X106400000Y-129000000D03*
X106400000Y-130400000D03*
X105400000Y-130400000D03*
X105400000Y-129000000D03*
X104400000Y-129000000D03*
X104400000Y-130400000D03*
X63200000Y-124800000D03*
X64200000Y-124800000D03*
X65200000Y-124800000D03*
X65200000Y-125800000D03*
X64200000Y-125800000D03*
X63200000Y-125800000D03*
X63200000Y-126800000D03*
X64200000Y-126800000D03*
X65200000Y-126800000D03*
X95800000Y-121600000D03*
X95800000Y-122600000D03*
X95800000Y-123600000D03*
X95800000Y-124600000D03*
X95800000Y-125600000D03*
X95800000Y-126600000D03*
X95800000Y-127600000D03*
X95800000Y-128600000D03*
X104400000Y-110200000D03*
X104400000Y-111200000D03*
X104400000Y-112200000D03*
X103200000Y-110200000D03*
X103200000Y-111200000D03*
X103200000Y-112200000D03*
X104000000Y-123000000D03*
X104000000Y-124000000D03*
X104000000Y-125000000D03*
X103000000Y-125000000D03*
X103000000Y-124000000D03*
X103000000Y-123000000D03*
X102000000Y-125000000D03*
X102000000Y-124000000D03*
X102000000Y-123000000D03*
X79700000Y-101700000D03*
X80800000Y-101700000D03*
X81900000Y-101700000D03*
X81900000Y-102800000D03*
X80800000Y-102800000D03*
X79700000Y-102800000D03*
X96500000Y-105000000D03*
X96500000Y-103900000D03*
X97700000Y-103900000D03*
X97700000Y-105000000D03*
X98900000Y-105000000D03*
X98900000Y-103900000D03*
X100100000Y-103900000D03*
X100100000Y-105000000D03*
X63200000Y-117800000D03*
X64200000Y-117800000D03*
X65200000Y-117800000D03*
X63200000Y-116600000D03*
X64200000Y-116600000D03*
X65200000Y-116600000D03*
X63200000Y-114200000D03*
X64200000Y-114200000D03*
X65200000Y-114200000D03*
X65200000Y-115400000D03*
X64200000Y-115400000D03*
X63200000Y-115400000D03*
X78400000Y-119400000D03*
X77300000Y-119400000D03*
X76200000Y-119400000D03*
X75100000Y-119400000D03*
X74000000Y-119400000D03*
X73300000Y-121700000D03*
X72300000Y-121700000D03*
X72300000Y-120600000D03*
X73300000Y-120600000D03*
D24*
X89600000Y-109000000D02*
X86300000Y-109000000D01*
X75000000Y-128800000D02*
X75000000Y-131600000D01*
D25*
X87800000Y-125000000D02*
X85540000Y-125000000D01*
X88400000Y-124400000D02*
X87800000Y-125000000D01*
X88400000Y-123700000D02*
X88400000Y-124400000D01*
X90100000Y-122000000D02*
X88400000Y-123700000D01*
X91800000Y-122000000D02*
X90100000Y-122000000D01*
X83000000Y-137000000D02*
X83000000Y-133000000D01*
X83000000Y-133000000D02*
X83000000Y-129000000D01*
X83000000Y-125000000D02*
X83000000Y-129000000D01*
X88600000Y-119540000D02*
X88600000Y-121600000D01*
X88200000Y-122000000D02*
X87000000Y-122000000D01*
X88600000Y-121600000D02*
X88200000Y-122000000D01*
X87000000Y-122900000D02*
X87000000Y-122000000D01*
X86500000Y-123400000D02*
X87000000Y-122900000D01*
X83600000Y-123400000D02*
X86500000Y-123400000D01*
X83000000Y-124000000D02*
X83600000Y-123400000D01*
X83000000Y-125000000D02*
X83000000Y-124000000D01*
X87800000Y-129000000D02*
X85540000Y-129000000D01*
X88900000Y-127900000D02*
X87800000Y-129000000D01*
X88900000Y-125800000D02*
X88900000Y-127900000D01*
X90700000Y-124000000D02*
X88900000Y-125800000D01*
X91800000Y-124000000D02*
X90700000Y-124000000D01*
X87800000Y-133000000D02*
X85540000Y-133000000D01*
X90000000Y-130800000D02*
X90000000Y-126800000D01*
X90000000Y-130800000D02*
X87800000Y-133000000D01*
X90800000Y-126000000D02*
X91800000Y-126000000D01*
X90000000Y-126800000D02*
X90800000Y-126000000D01*
X91800000Y-133200000D02*
X88000000Y-137000000D01*
X88000000Y-137000000D02*
X85540000Y-137000000D01*
X91800000Y-128000000D02*
X91800000Y-133200000D01*
D26*
X108483871Y-109341866D02*
X108559533Y-109380418D01*
X108619582Y-109440467D01*
X108658134Y-109516129D01*
X108673000Y-109609992D01*
X108673000Y-115690008D01*
X108658134Y-115783871D01*
X108619582Y-115859533D01*
X108559533Y-115919582D01*
X108483871Y-115958134D01*
X108390008Y-115973000D01*
X98700000Y-115973000D01*
X98680133Y-115974564D01*
X98556526Y-115994141D01*
X98532437Y-116000427D01*
X98518736Y-116006419D01*
X98407229Y-116063235D01*
X98386261Y-116076658D01*
X98375083Y-116086590D01*
X98286590Y-116175083D01*
X98270796Y-116194329D01*
X98263235Y-116207229D01*
X98206419Y-116318736D01*
X98197345Y-116341920D01*
X98194141Y-116356526D01*
X98174564Y-116480133D01*
X98173000Y-116500000D01*
X98173000Y-116890008D01*
X98158134Y-116983871D01*
X98119582Y-117059533D01*
X98059533Y-117119582D01*
X97983871Y-117158134D01*
X97890008Y-117173000D01*
X93512509Y-117173000D01*
X93434749Y-117157533D01*
X93379430Y-117120570D01*
X93342467Y-117065251D01*
X93329488Y-117000000D01*
X93342467Y-116934749D01*
X93379430Y-116879430D01*
X93434749Y-116842467D01*
X93512509Y-116827000D01*
X96300000Y-116827000D01*
X96319867Y-116825436D01*
X96443474Y-116805859D01*
X96467563Y-116799573D01*
X96481264Y-116793581D01*
X96592771Y-116736765D01*
X96613739Y-116723342D01*
X96624917Y-116713410D01*
X96713410Y-116624917D01*
X96729204Y-116605671D01*
X96736765Y-116592771D01*
X96793581Y-116481264D01*
X96802655Y-116458080D01*
X96805859Y-116443474D01*
X96825436Y-116319867D01*
X96827000Y-116300000D01*
X96827000Y-115809992D01*
X96841866Y-115716129D01*
X96880418Y-115640467D01*
X96940467Y-115580418D01*
X97016129Y-115541866D01*
X97109992Y-115527000D01*
X97200000Y-115527000D01*
X97219867Y-115525436D01*
X97343474Y-115505859D01*
X97367563Y-115499573D01*
X97381264Y-115493581D01*
X97492771Y-115436765D01*
X97513739Y-115423342D01*
X97524917Y-115413410D01*
X97613410Y-115324917D01*
X97629204Y-115305671D01*
X97636765Y-115292771D01*
X97693581Y-115181264D01*
X97702655Y-115158080D01*
X97705859Y-115143474D01*
X97725436Y-115019867D01*
X97727000Y-115000000D01*
X97727000Y-113509992D01*
X97741866Y-113416129D01*
X97780418Y-113340467D01*
X97840467Y-113280418D01*
X97916129Y-113241866D01*
X98009992Y-113227000D01*
X101500000Y-113227000D01*
X101519867Y-113225436D01*
X101643474Y-113205859D01*
X101667563Y-113199573D01*
X101681264Y-113193581D01*
X101792771Y-113136765D01*
X101813739Y-113123342D01*
X101824917Y-113113410D01*
X101913410Y-113024917D01*
X101929204Y-113005671D01*
X101936765Y-112992771D01*
X101993581Y-112881264D01*
X102002655Y-112858080D01*
X102005859Y-112843474D01*
X102025436Y-112719867D01*
X102027000Y-112700000D01*
X102027000Y-109609992D01*
X102041866Y-109516129D01*
X102080418Y-109440467D01*
X102140467Y-109380418D01*
X102216129Y-109341866D01*
X102309992Y-109327000D01*
X108390008Y-109327000D01*
X108483871Y-109341866D01*
G04 #@! TA.AperFunction,Conductor*
D27*
G36*
X108483871Y-109341866D02*
G01*
X108559533Y-109380418D01*
X108619582Y-109440467D01*
X108658134Y-109516129D01*
X108673000Y-109609992D01*
X108673000Y-115690008D01*
X108658134Y-115783871D01*
X108619582Y-115859533D01*
X108559533Y-115919582D01*
X108483871Y-115958134D01*
X108390008Y-115973000D01*
X98700000Y-115973000D01*
X98680133Y-115974564D01*
X98556526Y-115994141D01*
X98532437Y-116000427D01*
X98518736Y-116006419D01*
X98407229Y-116063235D01*
X98386261Y-116076658D01*
X98375083Y-116086590D01*
X98286590Y-116175083D01*
X98270796Y-116194329D01*
X98263235Y-116207229D01*
X98206419Y-116318736D01*
X98197345Y-116341920D01*
X98194141Y-116356526D01*
X98174564Y-116480133D01*
X98173000Y-116500000D01*
X98173000Y-116890008D01*
X98158134Y-116983871D01*
X98119582Y-117059533D01*
X98059533Y-117119582D01*
X97983871Y-117158134D01*
X97890008Y-117173000D01*
X93512509Y-117173000D01*
X93434749Y-117157533D01*
X93379430Y-117120570D01*
X93342467Y-117065251D01*
X93329488Y-117000000D01*
X93342467Y-116934749D01*
X93379430Y-116879430D01*
X93434749Y-116842467D01*
X93512509Y-116827000D01*
X96300000Y-116827000D01*
X96319867Y-116825436D01*
X96443474Y-116805859D01*
X96467563Y-116799573D01*
X96481264Y-116793581D01*
X96592771Y-116736765D01*
X96613739Y-116723342D01*
X96624917Y-116713410D01*
X96713410Y-116624917D01*
X96729204Y-116605671D01*
X96736765Y-116592771D01*
X96793581Y-116481264D01*
X96802655Y-116458080D01*
X96805859Y-116443474D01*
X96825436Y-116319867D01*
X96827000Y-116300000D01*
X96827000Y-115809992D01*
X96841866Y-115716129D01*
X96880418Y-115640467D01*
X96940467Y-115580418D01*
X97016129Y-115541866D01*
X97109992Y-115527000D01*
X97200000Y-115527000D01*
X97219867Y-115525436D01*
X97343474Y-115505859D01*
X97367563Y-115499573D01*
X97381264Y-115493581D01*
X97492771Y-115436765D01*
X97513739Y-115423342D01*
X97524917Y-115413410D01*
X97613410Y-115324917D01*
X97629204Y-115305671D01*
X97636765Y-115292771D01*
X97693581Y-115181264D01*
X97702655Y-115158080D01*
X97705859Y-115143474D01*
X97725436Y-115019867D01*
X97727000Y-115000000D01*
X97727000Y-113509992D01*
X97741866Y-113416129D01*
X97780418Y-113340467D01*
X97840467Y-113280418D01*
X97916129Y-113241866D01*
X98009992Y-113227000D01*
X101500000Y-113227000D01*
X101519867Y-113225436D01*
X101643474Y-113205859D01*
X101667563Y-113199573D01*
X101681264Y-113193581D01*
X101792771Y-113136765D01*
X101813739Y-113123342D01*
X101824917Y-113113410D01*
X101913410Y-113024917D01*
X101929204Y-113005671D01*
X101936765Y-112992771D01*
X101993581Y-112881264D01*
X102002655Y-112858080D01*
X102005859Y-112843474D01*
X102025436Y-112719867D01*
X102027000Y-112700000D01*
X102027000Y-109609992D01*
X102041866Y-109516129D01*
X102080418Y-109440467D01*
X102140467Y-109380418D01*
X102216129Y-109341866D01*
X102309992Y-109327000D01*
X108390008Y-109327000D01*
X108483871Y-109341866D01*
G37*
G04 #@! TD.AperFunction*
D26*
X95583871Y-101341866D02*
X95659533Y-101380418D01*
X95719582Y-101440467D01*
X95758134Y-101516129D01*
X95773000Y-101609992D01*
X95773000Y-102900000D01*
X95774564Y-102919867D01*
X95794141Y-103043474D01*
X95800427Y-103067563D01*
X95806419Y-103081264D01*
X95863235Y-103192771D01*
X95876658Y-103213739D01*
X95886590Y-103224917D01*
X95975083Y-103313410D01*
X95994329Y-103329204D01*
X96007229Y-103336765D01*
X96118736Y-103393581D01*
X96141920Y-103402655D01*
X96156526Y-103405859D01*
X96280133Y-103425436D01*
X96300000Y-103427000D01*
X100590008Y-103427000D01*
X100683871Y-103441866D01*
X100759533Y-103480418D01*
X100819582Y-103540467D01*
X100858134Y-103616129D01*
X100873000Y-103709992D01*
X100873000Y-112090008D01*
X100858134Y-112183871D01*
X100819582Y-112259533D01*
X100759533Y-112319582D01*
X100683871Y-112358134D01*
X100590008Y-112373000D01*
X95900000Y-112373000D01*
X95880133Y-112374564D01*
X95756526Y-112394141D01*
X95732437Y-112400427D01*
X95718736Y-112406419D01*
X95607229Y-112463235D01*
X95586261Y-112476658D01*
X95575083Y-112486590D01*
X95486590Y-112575083D01*
X95470796Y-112594329D01*
X95463235Y-112607229D01*
X95406419Y-112718736D01*
X95397345Y-112741920D01*
X95394141Y-112756526D01*
X95374564Y-112880133D01*
X95373000Y-112900000D01*
X95373000Y-115690008D01*
X95358134Y-115783871D01*
X95319582Y-115859533D01*
X95259533Y-115919582D01*
X95183871Y-115958134D01*
X95090008Y-115973000D01*
X93609992Y-115973000D01*
X93516129Y-115958134D01*
X93440467Y-115919582D01*
X93380418Y-115859533D01*
X93341866Y-115783871D01*
X93327000Y-115690008D01*
X93327000Y-114100000D01*
X93325436Y-114080133D01*
X93305859Y-113956526D01*
X93299573Y-113932437D01*
X93293581Y-113918736D01*
X93236765Y-113807229D01*
X93223342Y-113786261D01*
X93213410Y-113775083D01*
X93124917Y-113686590D01*
X93105671Y-113670796D01*
X93092771Y-113663235D01*
X92981264Y-113606419D01*
X92958080Y-113597345D01*
X92943474Y-113594141D01*
X92819867Y-113574564D01*
X92800000Y-113573000D01*
X84404818Y-113573000D01*
X84309922Y-113557797D01*
X84233630Y-113518407D01*
X84173458Y-113457151D01*
X84135436Y-113380166D01*
X84121930Y-113285022D01*
X84132289Y-112705003D01*
X84148478Y-112612438D01*
X84187533Y-112538100D01*
X84247438Y-112479256D01*
X84322459Y-112441535D01*
X84415304Y-112427000D01*
X92800000Y-112427000D01*
X92819867Y-112425436D01*
X92943474Y-112405859D01*
X92967563Y-112399573D01*
X92981264Y-112393581D01*
X93092771Y-112336765D01*
X93113739Y-112323342D01*
X93124917Y-112313410D01*
X93213410Y-112224917D01*
X93229204Y-112205671D01*
X93236765Y-112192771D01*
X93293581Y-112081264D01*
X93302655Y-112058080D01*
X93305859Y-112043474D01*
X93325436Y-111919867D01*
X93327000Y-111900000D01*
X93327000Y-105900000D01*
X93325436Y-105880133D01*
X93305859Y-105756526D01*
X93299573Y-105732437D01*
X93293581Y-105718736D01*
X93236765Y-105607229D01*
X93223342Y-105586261D01*
X93213410Y-105575083D01*
X93124917Y-105486590D01*
X93105671Y-105470796D01*
X93092771Y-105463235D01*
X92981264Y-105406419D01*
X92958080Y-105397345D01*
X92943474Y-105394141D01*
X92819867Y-105374564D01*
X92800000Y-105373000D01*
X80400000Y-105373000D01*
X80380133Y-105374564D01*
X80256526Y-105394141D01*
X80232437Y-105400427D01*
X80218736Y-105406419D01*
X80107229Y-105463235D01*
X80086261Y-105476658D01*
X80075083Y-105486590D01*
X79986590Y-105575083D01*
X79970796Y-105594329D01*
X79963235Y-105607229D01*
X79906419Y-105718736D01*
X79897345Y-105741920D01*
X79894141Y-105756526D01*
X79874564Y-105880133D01*
X79873000Y-105900000D01*
X79873000Y-106390008D01*
X79858134Y-106483871D01*
X79819582Y-106559533D01*
X79759533Y-106619582D01*
X79683871Y-106658134D01*
X79590008Y-106673000D01*
X73409992Y-106673000D01*
X73316129Y-106658134D01*
X73240467Y-106619582D01*
X73180418Y-106559533D01*
X73141866Y-106483871D01*
X73127000Y-106390008D01*
X73127000Y-101609992D01*
X73141866Y-101516129D01*
X73180418Y-101440467D01*
X73240467Y-101380418D01*
X73316129Y-101341866D01*
X73409992Y-101327000D01*
X95490008Y-101327000D01*
X95583871Y-101341866D01*
G04 #@! TA.AperFunction,Conductor*
D27*
G36*
X95583871Y-101341866D02*
G01*
X95659533Y-101380418D01*
X95719582Y-101440467D01*
X95758134Y-101516129D01*
X95773000Y-101609992D01*
X95773000Y-102900000D01*
X95774564Y-102919867D01*
X95794141Y-103043474D01*
X95800427Y-103067563D01*
X95806419Y-103081264D01*
X95863235Y-103192771D01*
X95876658Y-103213739D01*
X95886590Y-103224917D01*
X95975083Y-103313410D01*
X95994329Y-103329204D01*
X96007229Y-103336765D01*
X96118736Y-103393581D01*
X96141920Y-103402655D01*
X96156526Y-103405859D01*
X96280133Y-103425436D01*
X96300000Y-103427000D01*
X100590008Y-103427000D01*
X100683871Y-103441866D01*
X100759533Y-103480418D01*
X100819582Y-103540467D01*
X100858134Y-103616129D01*
X100873000Y-103709992D01*
X100873000Y-112090008D01*
X100858134Y-112183871D01*
X100819582Y-112259533D01*
X100759533Y-112319582D01*
X100683871Y-112358134D01*
X100590008Y-112373000D01*
X95900000Y-112373000D01*
X95880133Y-112374564D01*
X95756526Y-112394141D01*
X95732437Y-112400427D01*
X95718736Y-112406419D01*
X95607229Y-112463235D01*
X95586261Y-112476658D01*
X95575083Y-112486590D01*
X95486590Y-112575083D01*
X95470796Y-112594329D01*
X95463235Y-112607229D01*
X95406419Y-112718736D01*
X95397345Y-112741920D01*
X95394141Y-112756526D01*
X95374564Y-112880133D01*
X95373000Y-112900000D01*
X95373000Y-115690008D01*
X95358134Y-115783871D01*
X95319582Y-115859533D01*
X95259533Y-115919582D01*
X95183871Y-115958134D01*
X95090008Y-115973000D01*
X93609992Y-115973000D01*
X93516129Y-115958134D01*
X93440467Y-115919582D01*
X93380418Y-115859533D01*
X93341866Y-115783871D01*
X93327000Y-115690008D01*
X93327000Y-114100000D01*
X93325436Y-114080133D01*
X93305859Y-113956526D01*
X93299573Y-113932437D01*
X93293581Y-113918736D01*
X93236765Y-113807229D01*
X93223342Y-113786261D01*
X93213410Y-113775083D01*
X93124917Y-113686590D01*
X93105671Y-113670796D01*
X93092771Y-113663235D01*
X92981264Y-113606419D01*
X92958080Y-113597345D01*
X92943474Y-113594141D01*
X92819867Y-113574564D01*
X92800000Y-113573000D01*
X84404818Y-113573000D01*
X84309922Y-113557797D01*
X84233630Y-113518407D01*
X84173458Y-113457151D01*
X84135436Y-113380166D01*
X84121930Y-113285022D01*
X84132289Y-112705003D01*
X84148478Y-112612438D01*
X84187533Y-112538100D01*
X84247438Y-112479256D01*
X84322459Y-112441535D01*
X84415304Y-112427000D01*
X92800000Y-112427000D01*
X92819867Y-112425436D01*
X92943474Y-112405859D01*
X92967563Y-112399573D01*
X92981264Y-112393581D01*
X93092771Y-112336765D01*
X93113739Y-112323342D01*
X93124917Y-112313410D01*
X93213410Y-112224917D01*
X93229204Y-112205671D01*
X93236765Y-112192771D01*
X93293581Y-112081264D01*
X93302655Y-112058080D01*
X93305859Y-112043474D01*
X93325436Y-111919867D01*
X93327000Y-111900000D01*
X93327000Y-105900000D01*
X93325436Y-105880133D01*
X93305859Y-105756526D01*
X93299573Y-105732437D01*
X93293581Y-105718736D01*
X93236765Y-105607229D01*
X93223342Y-105586261D01*
X93213410Y-105575083D01*
X93124917Y-105486590D01*
X93105671Y-105470796D01*
X93092771Y-105463235D01*
X92981264Y-105406419D01*
X92958080Y-105397345D01*
X92943474Y-105394141D01*
X92819867Y-105374564D01*
X92800000Y-105373000D01*
X80400000Y-105373000D01*
X80380133Y-105374564D01*
X80256526Y-105394141D01*
X80232437Y-105400427D01*
X80218736Y-105406419D01*
X80107229Y-105463235D01*
X80086261Y-105476658D01*
X80075083Y-105486590D01*
X79986590Y-105575083D01*
X79970796Y-105594329D01*
X79963235Y-105607229D01*
X79906419Y-105718736D01*
X79897345Y-105741920D01*
X79894141Y-105756526D01*
X79874564Y-105880133D01*
X79873000Y-105900000D01*
X79873000Y-106390008D01*
X79858134Y-106483871D01*
X79819582Y-106559533D01*
X79759533Y-106619582D01*
X79683871Y-106658134D01*
X79590008Y-106673000D01*
X73409992Y-106673000D01*
X73316129Y-106658134D01*
X73240467Y-106619582D01*
X73180418Y-106559533D01*
X73141866Y-106483871D01*
X73127000Y-106390008D01*
X73127000Y-101609992D01*
X73141866Y-101516129D01*
X73180418Y-101440467D01*
X73240467Y-101380418D01*
X73316129Y-101341866D01*
X73409992Y-101327000D01*
X95490008Y-101327000D01*
X95583871Y-101341866D01*
G37*
G04 #@! TD.AperFunction*
D26*
X89273000Y-115087631D02*
X89242925Y-115143897D01*
X89207073Y-115262087D01*
X89194967Y-115385000D01*
X89194967Y-115873000D01*
X84127000Y-115873000D01*
X84127000Y-114527000D01*
X89273000Y-114527000D01*
X89273000Y-115087631D01*
G04 #@! TA.AperFunction,Conductor*
D27*
G36*
X89273000Y-115087631D02*
G01*
X89242925Y-115143897D01*
X89207073Y-115262087D01*
X89194967Y-115385000D01*
X89194967Y-115873000D01*
X84127000Y-115873000D01*
X84127000Y-114527000D01*
X89273000Y-114527000D01*
X89273000Y-115087631D01*
G37*
G04 #@! TD.AperFunction*
D26*
X69192385Y-110439583D02*
X69263340Y-110472396D01*
X69328986Y-110530195D01*
X70783434Y-112241310D01*
X70796275Y-112254378D01*
X70882667Y-112330443D01*
X70913286Y-112350395D01*
X71017762Y-112398709D01*
X71052795Y-112409116D01*
X71166703Y-112425678D01*
X71184976Y-112427000D01*
X78690008Y-112427000D01*
X78783871Y-112441866D01*
X78859533Y-112480418D01*
X78919582Y-112540467D01*
X78958134Y-112616129D01*
X78973000Y-112709992D01*
X78973000Y-116300000D01*
X78974564Y-116319867D01*
X78994141Y-116443474D01*
X79000427Y-116467563D01*
X79006419Y-116481264D01*
X79063235Y-116592771D01*
X79076658Y-116613739D01*
X79086590Y-116624917D01*
X79175083Y-116713410D01*
X79194329Y-116729204D01*
X79207229Y-116736765D01*
X79318736Y-116793581D01*
X79341920Y-116802655D01*
X79356526Y-116805859D01*
X79480133Y-116825436D01*
X79500000Y-116827000D01*
X85390008Y-116827000D01*
X85483871Y-116841866D01*
X85559533Y-116880418D01*
X85619582Y-116940467D01*
X85658134Y-117016129D01*
X85673000Y-117109992D01*
X85673000Y-122490008D01*
X85658134Y-122583871D01*
X85619582Y-122659533D01*
X85559533Y-122719582D01*
X85483871Y-122758134D01*
X85390008Y-122773000D01*
X76500000Y-122773000D01*
X76480133Y-122774564D01*
X76356526Y-122794141D01*
X76332437Y-122800427D01*
X76318736Y-122806419D01*
X76207229Y-122863235D01*
X76186261Y-122876658D01*
X76175083Y-122886590D01*
X76086590Y-122975083D01*
X76070796Y-122994329D01*
X76063235Y-123007229D01*
X76006419Y-123118736D01*
X75997345Y-123141920D01*
X75994141Y-123156526D01*
X75974564Y-123280133D01*
X75973000Y-123300000D01*
X75973000Y-124790008D01*
X75958134Y-124883871D01*
X75919582Y-124959533D01*
X75859533Y-125019582D01*
X75783871Y-125058134D01*
X75690008Y-125073000D01*
X72009992Y-125073000D01*
X71916129Y-125058134D01*
X71840467Y-125019582D01*
X71780418Y-124959533D01*
X71741866Y-124883871D01*
X71727000Y-124790008D01*
X71727000Y-124336743D01*
X71725281Y-124315920D01*
X71703775Y-124186529D01*
X71697306Y-124162488D01*
X71690304Y-124147123D01*
X71628099Y-124031645D01*
X71616711Y-124014128D01*
X69420523Y-121177385D01*
X69407593Y-121163076D01*
X69319792Y-121079627D01*
X69300152Y-121064327D01*
X69288226Y-121057659D01*
X69179472Y-121004318D01*
X69156152Y-120995598D01*
X69142776Y-120992805D01*
X69023042Y-120974464D01*
X69003812Y-120973000D01*
X62909992Y-120973000D01*
X62816129Y-120958134D01*
X62740467Y-120919582D01*
X62680418Y-120859533D01*
X62641866Y-120783871D01*
X62627000Y-120690008D01*
X62627000Y-110709992D01*
X62641866Y-110616129D01*
X62680418Y-110540467D01*
X62740467Y-110480418D01*
X62816129Y-110441866D01*
X62909992Y-110427000D01*
X69105843Y-110427000D01*
X69192385Y-110439583D01*
G04 #@! TA.AperFunction,Conductor*
D27*
G36*
X69192385Y-110439583D02*
G01*
X69263340Y-110472396D01*
X69328986Y-110530195D01*
X70783434Y-112241310D01*
X70796275Y-112254378D01*
X70882667Y-112330443D01*
X70913286Y-112350395D01*
X71017762Y-112398709D01*
X71052795Y-112409116D01*
X71166703Y-112425678D01*
X71184976Y-112427000D01*
X78690008Y-112427000D01*
X78783871Y-112441866D01*
X78859533Y-112480418D01*
X78919582Y-112540467D01*
X78958134Y-112616129D01*
X78973000Y-112709992D01*
X78973000Y-116300000D01*
X78974564Y-116319867D01*
X78994141Y-116443474D01*
X79000427Y-116467563D01*
X79006419Y-116481264D01*
X79063235Y-116592771D01*
X79076658Y-116613739D01*
X79086590Y-116624917D01*
X79175083Y-116713410D01*
X79194329Y-116729204D01*
X79207229Y-116736765D01*
X79318736Y-116793581D01*
X79341920Y-116802655D01*
X79356526Y-116805859D01*
X79480133Y-116825436D01*
X79500000Y-116827000D01*
X85390008Y-116827000D01*
X85483871Y-116841866D01*
X85559533Y-116880418D01*
X85619582Y-116940467D01*
X85658134Y-117016129D01*
X85673000Y-117109992D01*
X85673000Y-122490008D01*
X85658134Y-122583871D01*
X85619582Y-122659533D01*
X85559533Y-122719582D01*
X85483871Y-122758134D01*
X85390008Y-122773000D01*
X76500000Y-122773000D01*
X76480133Y-122774564D01*
X76356526Y-122794141D01*
X76332437Y-122800427D01*
X76318736Y-122806419D01*
X76207229Y-122863235D01*
X76186261Y-122876658D01*
X76175083Y-122886590D01*
X76086590Y-122975083D01*
X76070796Y-122994329D01*
X76063235Y-123007229D01*
X76006419Y-123118736D01*
X75997345Y-123141920D01*
X75994141Y-123156526D01*
X75974564Y-123280133D01*
X75973000Y-123300000D01*
X75973000Y-124790008D01*
X75958134Y-124883871D01*
X75919582Y-124959533D01*
X75859533Y-125019582D01*
X75783871Y-125058134D01*
X75690008Y-125073000D01*
X72009992Y-125073000D01*
X71916129Y-125058134D01*
X71840467Y-125019582D01*
X71780418Y-124959533D01*
X71741866Y-124883871D01*
X71727000Y-124790008D01*
X71727000Y-124336743D01*
X71725281Y-124315920D01*
X71703775Y-124186529D01*
X71697306Y-124162488D01*
X71690304Y-124147123D01*
X71628099Y-124031645D01*
X71616711Y-124014128D01*
X69420523Y-121177385D01*
X69407593Y-121163076D01*
X69319792Y-121079627D01*
X69300152Y-121064327D01*
X69288226Y-121057659D01*
X69179472Y-121004318D01*
X69156152Y-120995598D01*
X69142776Y-120992805D01*
X69023042Y-120974464D01*
X69003812Y-120973000D01*
X62909992Y-120973000D01*
X62816129Y-120958134D01*
X62740467Y-120919582D01*
X62680418Y-120859533D01*
X62641866Y-120783871D01*
X62627000Y-120690008D01*
X62627000Y-110709992D01*
X62641866Y-110616129D01*
X62680418Y-110540467D01*
X62740467Y-110480418D01*
X62816129Y-110441866D01*
X62909992Y-110427000D01*
X69105843Y-110427000D01*
X69192385Y-110439583D01*
G37*
G04 #@! TD.AperFunction*
D26*
X99883871Y-121141866D02*
X99959533Y-121180418D01*
X100019582Y-121240467D01*
X100058134Y-121316129D01*
X100073000Y-121409992D01*
X100073000Y-125500000D01*
X100074564Y-125519867D01*
X100094141Y-125643474D01*
X100100427Y-125667563D01*
X100106419Y-125681264D01*
X100163235Y-125792771D01*
X100176658Y-125813739D01*
X100186590Y-125824917D01*
X100275083Y-125913410D01*
X100294329Y-125929204D01*
X100307229Y-125936765D01*
X100418736Y-125993581D01*
X100441920Y-126002655D01*
X100456526Y-126005859D01*
X100580133Y-126025436D01*
X100600000Y-126027000D01*
X105270206Y-126027000D01*
X105496253Y-126120632D01*
X105829905Y-126187000D01*
X106170095Y-126187000D01*
X106503747Y-126120632D01*
X106718789Y-126031558D01*
X106783871Y-126041866D01*
X106859533Y-126080418D01*
X106919582Y-126140467D01*
X106958134Y-126216129D01*
X106973000Y-126309992D01*
X106973000Y-130695532D01*
X106958388Y-130788615D01*
X106920473Y-130863788D01*
X106861351Y-130923726D01*
X106786705Y-130962666D01*
X106693832Y-130978552D01*
X100192781Y-131067608D01*
X100173109Y-131069414D01*
X100050820Y-131090331D01*
X100026810Y-131096914D01*
X100013493Y-131102913D01*
X99903495Y-131160295D01*
X99882656Y-131173918D01*
X99871818Y-131183710D01*
X99784694Y-131272036D01*
X99769032Y-131291389D01*
X99761716Y-131304029D01*
X99705846Y-131414802D01*
X99696868Y-131438023D01*
X99693776Y-131452299D01*
X99674536Y-131574863D01*
X99673000Y-131594558D01*
X99673000Y-138190008D01*
X99658134Y-138283871D01*
X99619582Y-138359533D01*
X99559533Y-138419582D01*
X99483871Y-138458134D01*
X99390008Y-138473000D01*
X93609992Y-138473000D01*
X93516129Y-138458134D01*
X93440467Y-138419582D01*
X93380418Y-138359533D01*
X93341866Y-138283871D01*
X93327000Y-138190008D01*
X93327000Y-121409992D01*
X93341866Y-121316129D01*
X93380418Y-121240467D01*
X93440467Y-121180418D01*
X93516129Y-121141866D01*
X93609992Y-121127000D01*
X99790008Y-121127000D01*
X99883871Y-121141866D01*
G04 #@! TA.AperFunction,Conductor*
D27*
G36*
X99883871Y-121141866D02*
G01*
X99959533Y-121180418D01*
X100019582Y-121240467D01*
X100058134Y-121316129D01*
X100073000Y-121409992D01*
X100073000Y-125500000D01*
X100074564Y-125519867D01*
X100094141Y-125643474D01*
X100100427Y-125667563D01*
X100106419Y-125681264D01*
X100163235Y-125792771D01*
X100176658Y-125813739D01*
X100186590Y-125824917D01*
X100275083Y-125913410D01*
X100294329Y-125929204D01*
X100307229Y-125936765D01*
X100418736Y-125993581D01*
X100441920Y-126002655D01*
X100456526Y-126005859D01*
X100580133Y-126025436D01*
X100600000Y-126027000D01*
X105270206Y-126027000D01*
X105496253Y-126120632D01*
X105829905Y-126187000D01*
X106170095Y-126187000D01*
X106503747Y-126120632D01*
X106718789Y-126031558D01*
X106783871Y-126041866D01*
X106859533Y-126080418D01*
X106919582Y-126140467D01*
X106958134Y-126216129D01*
X106973000Y-126309992D01*
X106973000Y-130695532D01*
X106958388Y-130788615D01*
X106920473Y-130863788D01*
X106861351Y-130923726D01*
X106786705Y-130962666D01*
X106693832Y-130978552D01*
X100192781Y-131067608D01*
X100173109Y-131069414D01*
X100050820Y-131090331D01*
X100026810Y-131096914D01*
X100013493Y-131102913D01*
X99903495Y-131160295D01*
X99882656Y-131173918D01*
X99871818Y-131183710D01*
X99784694Y-131272036D01*
X99769032Y-131291389D01*
X99761716Y-131304029D01*
X99705846Y-131414802D01*
X99696868Y-131438023D01*
X99693776Y-131452299D01*
X99674536Y-131574863D01*
X99673000Y-131594558D01*
X99673000Y-138190008D01*
X99658134Y-138283871D01*
X99619582Y-138359533D01*
X99559533Y-138419582D01*
X99483871Y-138458134D01*
X99390008Y-138473000D01*
X93609992Y-138473000D01*
X93516129Y-138458134D01*
X93440467Y-138419582D01*
X93380418Y-138359533D01*
X93341866Y-138283871D01*
X93327000Y-138190008D01*
X93327000Y-121409992D01*
X93341866Y-121316129D01*
X93380418Y-121240467D01*
X93440467Y-121180418D01*
X93516129Y-121141866D01*
X93609992Y-121127000D01*
X99790008Y-121127000D01*
X99883871Y-121141866D01*
G37*
G04 #@! TD.AperFunction*
D26*
X67889099Y-121740189D02*
X67961374Y-121774528D01*
X68027535Y-121834846D01*
X70004764Y-124261446D01*
X70055434Y-124351443D01*
X70073000Y-124453208D01*
X70073000Y-126700000D01*
X70074564Y-126719867D01*
X70094141Y-126843474D01*
X70100427Y-126867563D01*
X70106419Y-126881264D01*
X70163235Y-126992771D01*
X70176658Y-127013739D01*
X70186590Y-127024917D01*
X70275083Y-127113410D01*
X70294329Y-127129204D01*
X70307229Y-127136765D01*
X70418736Y-127193581D01*
X70441920Y-127202655D01*
X70456526Y-127205859D01*
X70580133Y-127225436D01*
X70600000Y-127227000D01*
X78790008Y-127227000D01*
X78883871Y-127241866D01*
X78959533Y-127280418D01*
X79019582Y-127340467D01*
X79058134Y-127416129D01*
X79073000Y-127509992D01*
X79073000Y-137890008D01*
X79058134Y-137983871D01*
X79019582Y-138059533D01*
X78959533Y-138119582D01*
X78883871Y-138158134D01*
X78790008Y-138173000D01*
X69409992Y-138173000D01*
X69316129Y-138158134D01*
X69240467Y-138119582D01*
X69180418Y-138059533D01*
X69141866Y-137983871D01*
X69127000Y-137890008D01*
X69127000Y-131500000D01*
X69125436Y-131480133D01*
X69105859Y-131356526D01*
X69099573Y-131332437D01*
X69093581Y-131318736D01*
X69036765Y-131207229D01*
X69023342Y-131186261D01*
X69013410Y-131175083D01*
X68924917Y-131086590D01*
X68905671Y-131070796D01*
X68892771Y-131063235D01*
X68781264Y-131006419D01*
X68758080Y-130997345D01*
X68743474Y-130994141D01*
X68619867Y-130974564D01*
X68600000Y-130973000D01*
X62909992Y-130973000D01*
X62816129Y-130958134D01*
X62740467Y-130919582D01*
X62680418Y-130859533D01*
X62641866Y-130783871D01*
X62627000Y-130690008D01*
X62627000Y-122706198D01*
X62637000Y-122655924D01*
X62637000Y-122424076D01*
X62627000Y-122373802D01*
X62627000Y-122009992D01*
X62641866Y-121916129D01*
X62680418Y-121840467D01*
X62740467Y-121780418D01*
X62816129Y-121741866D01*
X62894353Y-121729477D01*
X62900000Y-121730033D01*
X65100000Y-121730033D01*
X65130794Y-121727000D01*
X67800545Y-121727000D01*
X67889099Y-121740189D01*
G04 #@! TA.AperFunction,Conductor*
D27*
G36*
X67889099Y-121740189D02*
G01*
X67961374Y-121774528D01*
X68027535Y-121834846D01*
X70004764Y-124261446D01*
X70055434Y-124351443D01*
X70073000Y-124453208D01*
X70073000Y-126700000D01*
X70074564Y-126719867D01*
X70094141Y-126843474D01*
X70100427Y-126867563D01*
X70106419Y-126881264D01*
X70163235Y-126992771D01*
X70176658Y-127013739D01*
X70186590Y-127024917D01*
X70275083Y-127113410D01*
X70294329Y-127129204D01*
X70307229Y-127136765D01*
X70418736Y-127193581D01*
X70441920Y-127202655D01*
X70456526Y-127205859D01*
X70580133Y-127225436D01*
X70600000Y-127227000D01*
X78790008Y-127227000D01*
X78883871Y-127241866D01*
X78959533Y-127280418D01*
X79019582Y-127340467D01*
X79058134Y-127416129D01*
X79073000Y-127509992D01*
X79073000Y-137890008D01*
X79058134Y-137983871D01*
X79019582Y-138059533D01*
X78959533Y-138119582D01*
X78883871Y-138158134D01*
X78790008Y-138173000D01*
X69409992Y-138173000D01*
X69316129Y-138158134D01*
X69240467Y-138119582D01*
X69180418Y-138059533D01*
X69141866Y-137983871D01*
X69127000Y-137890008D01*
X69127000Y-131500000D01*
X69125436Y-131480133D01*
X69105859Y-131356526D01*
X69099573Y-131332437D01*
X69093581Y-131318736D01*
X69036765Y-131207229D01*
X69023342Y-131186261D01*
X69013410Y-131175083D01*
X68924917Y-131086590D01*
X68905671Y-131070796D01*
X68892771Y-131063235D01*
X68781264Y-131006419D01*
X68758080Y-130997345D01*
X68743474Y-130994141D01*
X68619867Y-130974564D01*
X68600000Y-130973000D01*
X62909992Y-130973000D01*
X62816129Y-130958134D01*
X62740467Y-130919582D01*
X62680418Y-130859533D01*
X62641866Y-130783871D01*
X62627000Y-130690008D01*
X62627000Y-122706198D01*
X62637000Y-122655924D01*
X62637000Y-122424076D01*
X62627000Y-122373802D01*
X62627000Y-122009992D01*
X62641866Y-121916129D01*
X62680418Y-121840467D01*
X62740467Y-121780418D01*
X62816129Y-121741866D01*
X62894353Y-121729477D01*
X62900000Y-121730033D01*
X65100000Y-121730033D01*
X65130794Y-121727000D01*
X67800545Y-121727000D01*
X67889099Y-121740189D01*
G37*
G04 #@! TD.AperFunction*
D26*
X91573000Y-107552606D02*
X91573000Y-110447394D01*
X91547394Y-110473000D01*
X82752606Y-110473000D01*
X82727000Y-110447394D01*
X82727000Y-107552606D01*
X82752606Y-107527000D01*
X91547394Y-107527000D01*
X91573000Y-107552606D01*
G04 #@! TA.AperFunction,Conductor*
D27*
G36*
X91573000Y-107552606D02*
G01*
X91573000Y-110447394D01*
X91547394Y-110473000D01*
X82752606Y-110473000D01*
X82727000Y-110447394D01*
X82727000Y-107552606D01*
X82752606Y-107527000D01*
X91547394Y-107527000D01*
X91573000Y-107552606D01*
G37*
G04 #@! TD.AperFunction*
D26*
X108483871Y-118041866D02*
X108559533Y-118080418D01*
X108619582Y-118140467D01*
X108658134Y-118216129D01*
X108673000Y-118309992D01*
X108673000Y-119990008D01*
X108658134Y-120083871D01*
X108619582Y-120159533D01*
X108559533Y-120219582D01*
X108483871Y-120258134D01*
X108390008Y-120273000D01*
X96409992Y-120273000D01*
X96316129Y-120258134D01*
X96240467Y-120219582D01*
X96180418Y-120159533D01*
X96141866Y-120083871D01*
X96127000Y-119990008D01*
X96127000Y-119000000D01*
X96125436Y-118980133D01*
X96105859Y-118856526D01*
X96099573Y-118832437D01*
X96093581Y-118818736D01*
X96036765Y-118707229D01*
X96023342Y-118686261D01*
X96013410Y-118675083D01*
X95924917Y-118586590D01*
X95905671Y-118570796D01*
X95892771Y-118563235D01*
X95781264Y-118506419D01*
X95758080Y-118497345D01*
X95743474Y-118494141D01*
X95619867Y-118474564D01*
X95600000Y-118473000D01*
X93559992Y-118473000D01*
X93481580Y-118460581D01*
X93419855Y-118429130D01*
X93370870Y-118380145D01*
X93339419Y-118318420D01*
X93328583Y-118250000D01*
X93339419Y-118181580D01*
X93370870Y-118119855D01*
X93419855Y-118070870D01*
X93481580Y-118039419D01*
X93559992Y-118027000D01*
X108390008Y-118027000D01*
X108483871Y-118041866D01*
G04 #@! TA.AperFunction,Conductor*
D27*
G36*
X108483871Y-118041866D02*
G01*
X108559533Y-118080418D01*
X108619582Y-118140467D01*
X108658134Y-118216129D01*
X108673000Y-118309992D01*
X108673000Y-119990008D01*
X108658134Y-120083871D01*
X108619582Y-120159533D01*
X108559533Y-120219582D01*
X108483871Y-120258134D01*
X108390008Y-120273000D01*
X96409992Y-120273000D01*
X96316129Y-120258134D01*
X96240467Y-120219582D01*
X96180418Y-120159533D01*
X96141866Y-120083871D01*
X96127000Y-119990008D01*
X96127000Y-119000000D01*
X96125436Y-118980133D01*
X96105859Y-118856526D01*
X96099573Y-118832437D01*
X96093581Y-118818736D01*
X96036765Y-118707229D01*
X96023342Y-118686261D01*
X96013410Y-118675083D01*
X95924917Y-118586590D01*
X95905671Y-118570796D01*
X95892771Y-118563235D01*
X95781264Y-118506419D01*
X95758080Y-118497345D01*
X95743474Y-118494141D01*
X95619867Y-118474564D01*
X95600000Y-118473000D01*
X93559992Y-118473000D01*
X93481580Y-118460581D01*
X93419855Y-118429130D01*
X93370870Y-118380145D01*
X93339419Y-118318420D01*
X93328583Y-118250000D01*
X93339419Y-118181580D01*
X93370870Y-118119855D01*
X93419855Y-118070870D01*
X93481580Y-118039419D01*
X93559992Y-118027000D01*
X108390008Y-118027000D01*
X108483871Y-118041866D01*
G37*
G04 #@! TD.AperFunction*
D26*
X106783871Y-121141866D02*
X106859533Y-121180418D01*
X106919582Y-121240467D01*
X106958134Y-121316129D01*
X106973000Y-121409992D01*
X106973000Y-125190008D01*
X106958134Y-125283871D01*
X106919582Y-125359533D01*
X106859533Y-125419582D01*
X106783871Y-125458134D01*
X106703053Y-125470934D01*
X104900000Y-125470934D01*
X104879022Y-125473000D01*
X101209992Y-125473000D01*
X101116129Y-125458134D01*
X101040467Y-125419582D01*
X100980418Y-125359533D01*
X100941866Y-125283871D01*
X100927000Y-125190008D01*
X100927000Y-121409992D01*
X100941866Y-121316129D01*
X100980418Y-121240467D01*
X101040467Y-121180418D01*
X101116129Y-121141866D01*
X101209992Y-121127000D01*
X106690008Y-121127000D01*
X106783871Y-121141866D01*
G04 #@! TA.AperFunction,Conductor*
D27*
G36*
X106783871Y-121141866D02*
G01*
X106859533Y-121180418D01*
X106919582Y-121240467D01*
X106958134Y-121316129D01*
X106973000Y-121409992D01*
X106973000Y-125190008D01*
X106958134Y-125283871D01*
X106919582Y-125359533D01*
X106859533Y-125419582D01*
X106783871Y-125458134D01*
X106703053Y-125470934D01*
X104900000Y-125470934D01*
X104879022Y-125473000D01*
X101209992Y-125473000D01*
X101116129Y-125458134D01*
X101040467Y-125419582D01*
X100980418Y-125359533D01*
X100941866Y-125283871D01*
X100927000Y-125190008D01*
X100927000Y-121409992D01*
X100941866Y-121316129D01*
X100980418Y-121240467D01*
X101040467Y-121180418D01*
X101116129Y-121141866D01*
X101209992Y-121127000D01*
X106690008Y-121127000D01*
X106783871Y-121141866D01*
G37*
G04 #@! TD.AperFunction*
M02*
