G04 #@! TF.GenerationSoftware,KiCad,Pcbnew,(5.1.9)-1*
G04 #@! TF.CreationDate,2021-04-25T19:06:47+03:00*
G04 #@! TF.ProjectId,TPS5430_Board_Rev_1.0,54505335-3433-4305-9f42-6f6172645f52,rev?*
G04 #@! TF.SameCoordinates,Original*
G04 #@! TF.FileFunction,Legend,Top*
G04 #@! TF.FilePolarity,Positive*
%FSLAX46Y46*%
G04 Gerber Fmt 4.6, Leading zero omitted, Abs format (unit mm)*
G04 Created by KiCad (PCBNEW (5.1.9)-1) date 2021-04-25 19:06:47*
%MOMM*%
%LPD*%
G01*
G04 APERTURE LIST*
%ADD10C,0.150000*%
%ADD11C,0.300000*%
%ADD12C,0.120000*%
G04 APERTURE END LIST*
D10*
X67147619Y-110038095D02*
X66147619Y-110371428D01*
X67147619Y-110704761D01*
X67147619Y-111228571D02*
X67147619Y-111419047D01*
X67100000Y-111514285D01*
X67004761Y-111609523D01*
X66814285Y-111657142D01*
X66480952Y-111657142D01*
X66290476Y-111609523D01*
X66195238Y-111514285D01*
X66147619Y-111419047D01*
X66147619Y-111228571D01*
X66195238Y-111133333D01*
X66290476Y-111038095D01*
X66480952Y-110990476D01*
X66814285Y-110990476D01*
X67004761Y-111038095D01*
X67100000Y-111133333D01*
X67147619Y-111228571D01*
X67147619Y-112085714D02*
X66338095Y-112085714D01*
X66242857Y-112133333D01*
X66195238Y-112180952D01*
X66147619Y-112276190D01*
X66147619Y-112466666D01*
X66195238Y-112561904D01*
X66242857Y-112609523D01*
X66338095Y-112657142D01*
X67147619Y-112657142D01*
X67147619Y-112990476D02*
X67147619Y-113561904D01*
X66147619Y-113276190D02*
X67147619Y-113276190D01*
D11*
X82300000Y-101033333D02*
X83100000Y-101033333D01*
X82700000Y-102433333D02*
X82700000Y-101033333D01*
X83566666Y-102433333D02*
X83566666Y-101033333D01*
X84100000Y-101033333D01*
X84233333Y-101100000D01*
X84300000Y-101166666D01*
X84366666Y-101300000D01*
X84366666Y-101500000D01*
X84300000Y-101633333D01*
X84233333Y-101700000D01*
X84100000Y-101766666D01*
X83566666Y-101766666D01*
X84900000Y-102366666D02*
X85100000Y-102433333D01*
X85433333Y-102433333D01*
X85566666Y-102366666D01*
X85633333Y-102300000D01*
X85700000Y-102166666D01*
X85700000Y-102033333D01*
X85633333Y-101900000D01*
X85566666Y-101833333D01*
X85433333Y-101766666D01*
X85166666Y-101700000D01*
X85033333Y-101633333D01*
X84966666Y-101566666D01*
X84900000Y-101433333D01*
X84900000Y-101300000D01*
X84966666Y-101166666D01*
X85033333Y-101100000D01*
X85166666Y-101033333D01*
X85500000Y-101033333D01*
X85700000Y-101100000D01*
X86966666Y-101033333D02*
X86300000Y-101033333D01*
X86233333Y-101700000D01*
X86300000Y-101633333D01*
X86433333Y-101566666D01*
X86766666Y-101566666D01*
X86900000Y-101633333D01*
X86966666Y-101700000D01*
X87033333Y-101833333D01*
X87033333Y-102166666D01*
X86966666Y-102300000D01*
X86900000Y-102366666D01*
X86766666Y-102433333D01*
X86433333Y-102433333D01*
X86300000Y-102366666D01*
X86233333Y-102300000D01*
X88233333Y-101500000D02*
X88233333Y-102433333D01*
X87900000Y-100966666D02*
X87566666Y-101966666D01*
X88433333Y-101966666D01*
X88833333Y-101033333D02*
X89700000Y-101033333D01*
X89233333Y-101566666D01*
X89433333Y-101566666D01*
X89566666Y-101633333D01*
X89633333Y-101700000D01*
X89700000Y-101833333D01*
X89700000Y-102166666D01*
X89633333Y-102300000D01*
X89566666Y-102366666D01*
X89433333Y-102433333D01*
X89033333Y-102433333D01*
X88900000Y-102366666D01*
X88833333Y-102300000D01*
X90566666Y-101033333D02*
X90700000Y-101033333D01*
X90833333Y-101100000D01*
X90900000Y-101166666D01*
X90966666Y-101300000D01*
X91033333Y-101566666D01*
X91033333Y-101900000D01*
X90966666Y-102166666D01*
X90900000Y-102300000D01*
X90833333Y-102366666D01*
X90700000Y-102433333D01*
X90566666Y-102433333D01*
X90433333Y-102366666D01*
X90366666Y-102300000D01*
X90300000Y-102166666D01*
X90233333Y-101900000D01*
X90233333Y-101566666D01*
X90300000Y-101300000D01*
X90366666Y-101166666D01*
X90433333Y-101100000D01*
X90566666Y-101033333D01*
X92700000Y-102433333D02*
X92700000Y-101033333D01*
X93033333Y-101033333D01*
X93233333Y-101100000D01*
X93366666Y-101233333D01*
X93433333Y-101366666D01*
X93500000Y-101633333D01*
X93500000Y-101833333D01*
X93433333Y-102100000D01*
X93366666Y-102233333D01*
X93233333Y-102366666D01*
X93033333Y-102433333D01*
X92700000Y-102433333D01*
X94900000Y-102300000D02*
X94833333Y-102366666D01*
X94633333Y-102433333D01*
X94500000Y-102433333D01*
X94300000Y-102366666D01*
X94166666Y-102233333D01*
X94100000Y-102100000D01*
X94033333Y-101833333D01*
X94033333Y-101633333D01*
X94100000Y-101366666D01*
X94166666Y-101233333D01*
X94300000Y-101100000D01*
X94500000Y-101033333D01*
X94633333Y-101033333D01*
X94833333Y-101100000D01*
X94900000Y-101166666D01*
X96500000Y-100966666D02*
X95300000Y-102766666D01*
X96966666Y-102433333D02*
X96966666Y-101033333D01*
X97300000Y-101033333D01*
X97500000Y-101100000D01*
X97633333Y-101233333D01*
X97700000Y-101366666D01*
X97766666Y-101633333D01*
X97766666Y-101833333D01*
X97700000Y-102100000D01*
X97633333Y-102233333D01*
X97500000Y-102366666D01*
X97300000Y-102433333D01*
X96966666Y-102433333D01*
X99166666Y-102300000D02*
X99100000Y-102366666D01*
X98900000Y-102433333D01*
X98766666Y-102433333D01*
X98566666Y-102366666D01*
X98433333Y-102233333D01*
X98366666Y-102100000D01*
X98300000Y-101833333D01*
X98300000Y-101633333D01*
X98366666Y-101366666D01*
X98433333Y-101233333D01*
X98566666Y-101100000D01*
X98766666Y-101033333D01*
X98900000Y-101033333D01*
X99100000Y-101100000D01*
X99166666Y-101166666D01*
X86633333Y-104833333D02*
X86633333Y-103433333D01*
X87166666Y-103433333D01*
X87300000Y-103500000D01*
X87366666Y-103566666D01*
X87433333Y-103700000D01*
X87433333Y-103900000D01*
X87366666Y-104033333D01*
X87300000Y-104100000D01*
X87166666Y-104166666D01*
X86633333Y-104166666D01*
X88033333Y-104700000D02*
X88100000Y-104766666D01*
X88033333Y-104833333D01*
X87966666Y-104766666D01*
X88033333Y-104700000D01*
X88033333Y-104833333D01*
X88633333Y-104766666D02*
X88833333Y-104833333D01*
X89166666Y-104833333D01*
X89300000Y-104766666D01*
X89366666Y-104700000D01*
X89433333Y-104566666D01*
X89433333Y-104433333D01*
X89366666Y-104300000D01*
X89300000Y-104233333D01*
X89166666Y-104166666D01*
X88900000Y-104100000D01*
X88766666Y-104033333D01*
X88700000Y-103966666D01*
X88633333Y-103833333D01*
X88633333Y-103700000D01*
X88700000Y-103566666D01*
X88766666Y-103500000D01*
X88900000Y-103433333D01*
X89233333Y-103433333D01*
X89433333Y-103500000D01*
X90633333Y-103900000D02*
X90633333Y-104833333D01*
X90033333Y-103900000D02*
X90033333Y-104633333D01*
X90100000Y-104766666D01*
X90233333Y-104833333D01*
X90433333Y-104833333D01*
X90566666Y-104766666D01*
X90633333Y-104700000D01*
X91300000Y-103900000D02*
X91300000Y-105300000D01*
X91300000Y-103966666D02*
X91433333Y-103900000D01*
X91700000Y-103900000D01*
X91833333Y-103966666D01*
X91900000Y-104033333D01*
X91966666Y-104166666D01*
X91966666Y-104566666D01*
X91900000Y-104700000D01*
X91833333Y-104766666D01*
X91700000Y-104833333D01*
X91433333Y-104833333D01*
X91300000Y-104766666D01*
X92566666Y-103900000D02*
X92566666Y-105300000D01*
X92566666Y-103966666D02*
X92700000Y-103900000D01*
X92966666Y-103900000D01*
X93100000Y-103966666D01*
X93166666Y-104033333D01*
X93233333Y-104166666D01*
X93233333Y-104566666D01*
X93166666Y-104700000D01*
X93100000Y-104766666D01*
X92966666Y-104833333D01*
X92700000Y-104833333D01*
X92566666Y-104766666D01*
X94033333Y-104833333D02*
X93900000Y-104766666D01*
X93833333Y-104633333D01*
X93833333Y-103433333D01*
X94433333Y-103900000D02*
X94766666Y-104833333D01*
X95100000Y-103900000D02*
X94766666Y-104833333D01*
X94633333Y-105166666D01*
X94566666Y-105233333D01*
X94433333Y-105300000D01*
D10*
X99452380Y-129190476D02*
X98452380Y-129190476D01*
X99166666Y-128857142D01*
X98452380Y-128523809D01*
X99452380Y-128523809D01*
X99452380Y-127619047D02*
X98928571Y-127619047D01*
X98833333Y-127666666D01*
X98785714Y-127761904D01*
X98785714Y-127952380D01*
X98833333Y-128047619D01*
X99404761Y-127619047D02*
X99452380Y-127714285D01*
X99452380Y-127952380D01*
X99404761Y-128047619D01*
X99309523Y-128095238D01*
X99214285Y-128095238D01*
X99119047Y-128047619D01*
X99071428Y-127952380D01*
X99071428Y-127714285D01*
X99023809Y-127619047D01*
X99452380Y-127238095D02*
X98785714Y-126714285D01*
X98785714Y-127238095D02*
X99452380Y-126714285D01*
X99357142Y-126333333D02*
X99404761Y-126285714D01*
X99452380Y-126333333D01*
X99404761Y-126380952D01*
X99357142Y-126333333D01*
X99452380Y-126333333D01*
X98452380Y-125190476D02*
X98452380Y-124571428D01*
X98833333Y-124904761D01*
X98833333Y-124761904D01*
X98880952Y-124666666D01*
X98928571Y-124619047D01*
X99023809Y-124571428D01*
X99261904Y-124571428D01*
X99357142Y-124619047D01*
X99404761Y-124666666D01*
X99452380Y-124761904D01*
X99452380Y-125047619D01*
X99404761Y-125142857D01*
X99357142Y-125190476D01*
X98452380Y-123714285D02*
X98452380Y-123904761D01*
X98500000Y-124000000D01*
X98547619Y-124047619D01*
X98690476Y-124142857D01*
X98880952Y-124190476D01*
X99261904Y-124190476D01*
X99357142Y-124142857D01*
X99404761Y-124095238D01*
X99452380Y-124000000D01*
X99452380Y-123809523D01*
X99404761Y-123714285D01*
X99357142Y-123666666D01*
X99261904Y-123619047D01*
X99023809Y-123619047D01*
X98928571Y-123666666D01*
X98880952Y-123714285D01*
X98833333Y-123809523D01*
X98833333Y-124000000D01*
X98880952Y-124095238D01*
X98928571Y-124142857D01*
X99023809Y-124190476D01*
X98452380Y-123333333D02*
X99452380Y-123000000D01*
X98452380Y-122666666D01*
X70347619Y-119476190D02*
X69347619Y-119809523D01*
X70347619Y-120142857D01*
X69347619Y-120619047D02*
X69395238Y-120523809D01*
X69442857Y-120476190D01*
X69538095Y-120428571D01*
X69823809Y-120428571D01*
X69919047Y-120476190D01*
X69966666Y-120523809D01*
X70014285Y-120619047D01*
X70014285Y-120761904D01*
X69966666Y-120857142D01*
X69919047Y-120904761D01*
X69823809Y-120952380D01*
X69538095Y-120952380D01*
X69442857Y-120904761D01*
X69395238Y-120857142D01*
X69347619Y-120761904D01*
X69347619Y-120619047D01*
X70014285Y-121809523D02*
X69347619Y-121809523D01*
X70014285Y-121380952D02*
X69490476Y-121380952D01*
X69395238Y-121428571D01*
X69347619Y-121523809D01*
X69347619Y-121666666D01*
X69395238Y-121761904D01*
X69442857Y-121809523D01*
X70014285Y-122142857D02*
X70014285Y-122523809D01*
X70347619Y-122285714D02*
X69490476Y-122285714D01*
X69395238Y-122333333D01*
X69347619Y-122428571D01*
X69347619Y-122523809D01*
X100852380Y-129023809D02*
X99852380Y-129023809D01*
X100566666Y-128690476D01*
X99852380Y-128357142D01*
X100852380Y-128357142D01*
X100852380Y-127880952D02*
X100185714Y-127880952D01*
X99852380Y-127880952D02*
X99900000Y-127928571D01*
X99947619Y-127880952D01*
X99900000Y-127833333D01*
X99852380Y-127880952D01*
X99947619Y-127880952D01*
X100185714Y-127404761D02*
X100852380Y-127404761D01*
X100280952Y-127404761D02*
X100233333Y-127357142D01*
X100185714Y-127261904D01*
X100185714Y-127119047D01*
X100233333Y-127023809D01*
X100328571Y-126976190D01*
X100852380Y-126976190D01*
X100757142Y-126500000D02*
X100804761Y-126452380D01*
X100852380Y-126500000D01*
X100804761Y-126547619D01*
X100757142Y-126500000D01*
X100852380Y-126500000D01*
X99852380Y-124785714D02*
X99852380Y-125261904D01*
X100328571Y-125309523D01*
X100280952Y-125261904D01*
X100233333Y-125166666D01*
X100233333Y-124928571D01*
X100280952Y-124833333D01*
X100328571Y-124785714D01*
X100423809Y-124738095D01*
X100661904Y-124738095D01*
X100757142Y-124785714D01*
X100804761Y-124833333D01*
X100852380Y-124928571D01*
X100852380Y-125166666D01*
X100804761Y-125261904D01*
X100757142Y-125309523D01*
X99852380Y-124452380D02*
X100852380Y-124119047D01*
X99852380Y-123785714D01*
X99852380Y-122976190D02*
X99852380Y-123452380D01*
X100328571Y-123500000D01*
X100280952Y-123452380D01*
X100233333Y-123357142D01*
X100233333Y-123119047D01*
X100280952Y-123023809D01*
X100328571Y-122976190D01*
X100423809Y-122928571D01*
X100661904Y-122928571D01*
X100757142Y-122976190D01*
X100804761Y-123023809D01*
X100852380Y-123119047D01*
X100852380Y-123357142D01*
X100804761Y-123452380D01*
X100757142Y-123500000D01*
X88380952Y-137452380D02*
X87809523Y-137452380D01*
X88095238Y-137452380D02*
X88095238Y-136452380D01*
X88000000Y-136595238D01*
X87904761Y-136690476D01*
X87809523Y-136738095D01*
X88666666Y-136452380D02*
X89000000Y-137452380D01*
X89333333Y-136452380D01*
X89809523Y-136880952D02*
X89714285Y-136833333D01*
X89666666Y-136785714D01*
X89619047Y-136690476D01*
X89619047Y-136642857D01*
X89666666Y-136547619D01*
X89714285Y-136500000D01*
X89809523Y-136452380D01*
X90000000Y-136452380D01*
X90095238Y-136500000D01*
X90142857Y-136547619D01*
X90190476Y-136642857D01*
X90190476Y-136690476D01*
X90142857Y-136785714D01*
X90095238Y-136833333D01*
X90000000Y-136880952D01*
X89809523Y-136880952D01*
X89714285Y-136928571D01*
X89666666Y-136976190D01*
X89619047Y-137071428D01*
X89619047Y-137261904D01*
X89666666Y-137357142D01*
X89714285Y-137404761D01*
X89809523Y-137452380D01*
X90000000Y-137452380D01*
X90095238Y-137404761D01*
X90142857Y-137357142D01*
X90190476Y-137261904D01*
X90190476Y-137071428D01*
X90142857Y-136976190D01*
X90095238Y-136928571D01*
X90000000Y-136880952D01*
X87809523Y-132547619D02*
X87857142Y-132500000D01*
X87952380Y-132452380D01*
X88190476Y-132452380D01*
X88285714Y-132500000D01*
X88333333Y-132547619D01*
X88380952Y-132642857D01*
X88380952Y-132738095D01*
X88333333Y-132880952D01*
X87761904Y-133452380D01*
X88380952Y-133452380D01*
X88666666Y-132452380D02*
X89000000Y-133452380D01*
X89333333Y-132452380D01*
X90142857Y-132452380D02*
X89666666Y-132452380D01*
X89619047Y-132928571D01*
X89666666Y-132880952D01*
X89761904Y-132833333D01*
X90000000Y-132833333D01*
X90095238Y-132880952D01*
X90142857Y-132928571D01*
X90190476Y-133023809D01*
X90190476Y-133261904D01*
X90142857Y-133357142D01*
X90095238Y-133404761D01*
X90000000Y-133452380D01*
X89761904Y-133452380D01*
X89666666Y-133404761D01*
X89619047Y-133357142D01*
X88209523Y-124452380D02*
X87733333Y-124452380D01*
X87685714Y-124928571D01*
X87733333Y-124880952D01*
X87828571Y-124833333D01*
X88066666Y-124833333D01*
X88161904Y-124880952D01*
X88209523Y-124928571D01*
X88257142Y-125023809D01*
X88257142Y-125261904D01*
X88209523Y-125357142D01*
X88161904Y-125404761D01*
X88066666Y-125452380D01*
X87828571Y-125452380D01*
X87733333Y-125404761D01*
X87685714Y-125357142D01*
X88542857Y-124452380D02*
X88876190Y-125452380D01*
X89209523Y-124452380D01*
X87761904Y-128452380D02*
X88380952Y-128452380D01*
X88047619Y-128833333D01*
X88190476Y-128833333D01*
X88285714Y-128880952D01*
X88333333Y-128928571D01*
X88380952Y-129023809D01*
X88380952Y-129261904D01*
X88333333Y-129357142D01*
X88285714Y-129404761D01*
X88190476Y-129452380D01*
X87904761Y-129452380D01*
X87809523Y-129404761D01*
X87761904Y-129357142D01*
X88666666Y-128452380D02*
X89000000Y-129452380D01*
X89333333Y-128452380D01*
X89571428Y-128452380D02*
X90190476Y-128452380D01*
X89857142Y-128833333D01*
X90000000Y-128833333D01*
X90095238Y-128880952D01*
X90142857Y-128928571D01*
X90190476Y-129023809D01*
X90190476Y-129261904D01*
X90142857Y-129357142D01*
X90095238Y-129404761D01*
X90000000Y-129452380D01*
X89714285Y-129452380D01*
X89619047Y-129404761D01*
X89571428Y-129357142D01*
X68328571Y-119057142D02*
X68328571Y-119819047D01*
X67947619Y-119438095D02*
X68709523Y-119438095D01*
X68328571Y-122580952D02*
X68328571Y-123342857D01*
X70238095Y-137100000D02*
X70142857Y-137052380D01*
X70000000Y-137052380D01*
X69857142Y-137100000D01*
X69761904Y-137195238D01*
X69714285Y-137290476D01*
X69666666Y-137480952D01*
X69666666Y-137623809D01*
X69714285Y-137814285D01*
X69761904Y-137909523D01*
X69857142Y-138004761D01*
X70000000Y-138052380D01*
X70095238Y-138052380D01*
X70238095Y-138004761D01*
X70285714Y-137957142D01*
X70285714Y-137623809D01*
X70095238Y-137623809D01*
X70714285Y-138052380D02*
X70714285Y-137052380D01*
X71285714Y-138052380D01*
X71285714Y-137052380D01*
X71761904Y-138052380D02*
X71761904Y-137052380D01*
X72000000Y-137052380D01*
X72142857Y-137100000D01*
X72238095Y-137195238D01*
X72285714Y-137290476D01*
X72333333Y-137480952D01*
X72333333Y-137623809D01*
X72285714Y-137814285D01*
X72238095Y-137909523D01*
X72142857Y-138004761D01*
X72000000Y-138052380D01*
X71761904Y-138052380D01*
X97238095Y-137100000D02*
X97142857Y-137052380D01*
X97000000Y-137052380D01*
X96857142Y-137100000D01*
X96761904Y-137195238D01*
X96714285Y-137290476D01*
X96666666Y-137480952D01*
X96666666Y-137623809D01*
X96714285Y-137814285D01*
X96761904Y-137909523D01*
X96857142Y-138004761D01*
X97000000Y-138052380D01*
X97095238Y-138052380D01*
X97238095Y-138004761D01*
X97285714Y-137957142D01*
X97285714Y-137623809D01*
X97095238Y-137623809D01*
X97714285Y-138052380D02*
X97714285Y-137052380D01*
X98285714Y-138052380D01*
X98285714Y-137052380D01*
X98761904Y-138052380D02*
X98761904Y-137052380D01*
X99000000Y-137052380D01*
X99142857Y-137100000D01*
X99238095Y-137195238D01*
X99285714Y-137290476D01*
X99333333Y-137480952D01*
X99333333Y-137623809D01*
X99285714Y-137814285D01*
X99238095Y-137909523D01*
X99142857Y-138004761D01*
X99000000Y-138052380D01*
X98761904Y-138052380D01*
X101728571Y-123657142D02*
X101728571Y-124419047D01*
X101347619Y-124038095D02*
X102109523Y-124038095D01*
X101728571Y-127180952D02*
X101728571Y-127942857D01*
X106704761Y-108352380D02*
X107038095Y-109352380D01*
X107371428Y-108352380D01*
X107704761Y-109352380D02*
X107704761Y-108352380D01*
X108180952Y-109352380D02*
X108180952Y-108352380D01*
X108752380Y-109352380D01*
X108752380Y-108352380D01*
X89225000Y-115110000D02*
X87825000Y-115110000D01*
X89225000Y-120210000D02*
X93375000Y-120210000D01*
X89225000Y-115060000D02*
X93375000Y-115060000D01*
X89225000Y-120210000D02*
X89225000Y-120065000D01*
X93375000Y-120210000D02*
X93375000Y-120065000D01*
X93375000Y-115060000D02*
X93375000Y-115205000D01*
X89225000Y-115060000D02*
X89225000Y-115110000D01*
D12*
X62550000Y-113450000D02*
X62550000Y-110550000D01*
X65450000Y-113450000D02*
X62550000Y-113450000D01*
X65450000Y-110550000D02*
X65450000Y-113450000D01*
X62550000Y-110550000D02*
X65450000Y-110550000D01*
X69550000Y-136450000D02*
X69550000Y-133550000D01*
X72450000Y-136450000D02*
X69550000Y-136450000D01*
X72450000Y-133550000D02*
X72450000Y-136450000D01*
X69550000Y-133550000D02*
X72450000Y-133550000D01*
X96550000Y-136450000D02*
X96550000Y-133550000D01*
X99450000Y-136450000D02*
X96550000Y-136450000D01*
X99450000Y-133550000D02*
X99450000Y-136450000D01*
X96550000Y-133550000D02*
X99450000Y-133550000D01*
X105550000Y-112450000D02*
X105550000Y-109550000D01*
X108450000Y-112450000D02*
X105550000Y-112450000D01*
X108450000Y-109550000D02*
X108450000Y-112450000D01*
X105550000Y-109550000D02*
X108450000Y-109550000D01*
X92572936Y-128735000D02*
X93027064Y-128735000D01*
X92572936Y-127265000D02*
X93027064Y-127265000D01*
X92572936Y-126735000D02*
X93027064Y-126735000D01*
X92572936Y-125265000D02*
X93027064Y-125265000D01*
X92572936Y-124735000D02*
X93027064Y-124735000D01*
X92572936Y-123265000D02*
X93027064Y-123265000D01*
X92572936Y-122735000D02*
X93027064Y-122735000D01*
X92572936Y-121265000D02*
X93027064Y-121265000D01*
X85772936Y-122735000D02*
X86227064Y-122735000D01*
X85772936Y-121265000D02*
X86227064Y-121265000D01*
X69700000Y-103700000D02*
X72700000Y-103700000D01*
X69700000Y-116300000D02*
X69700000Y-103700000D01*
X72700000Y-116300000D02*
X69700000Y-116300000D01*
X82300000Y-116300000D02*
X79300000Y-116300000D01*
X82300000Y-103700000D02*
X82300000Y-116300000D01*
X79300000Y-103700000D02*
X82300000Y-103700000D01*
X81670000Y-138330000D02*
X81670000Y-137000000D01*
X83000000Y-138330000D02*
X81670000Y-138330000D01*
X84270000Y-138330000D02*
X84270000Y-135670000D01*
X84270000Y-135670000D02*
X86870000Y-135670000D01*
X84270000Y-138330000D02*
X86870000Y-138330000D01*
X86870000Y-138330000D02*
X86870000Y-135670000D01*
X81670000Y-134330000D02*
X81670000Y-133000000D01*
X83000000Y-134330000D02*
X81670000Y-134330000D01*
X84270000Y-134330000D02*
X84270000Y-131670000D01*
X84270000Y-131670000D02*
X86870000Y-131670000D01*
X84270000Y-134330000D02*
X86870000Y-134330000D01*
X86870000Y-134330000D02*
X86870000Y-131670000D01*
X81670000Y-130330000D02*
X81670000Y-129000000D01*
X83000000Y-130330000D02*
X81670000Y-130330000D01*
X84270000Y-130330000D02*
X84270000Y-127670000D01*
X84270000Y-127670000D02*
X86870000Y-127670000D01*
X84270000Y-130330000D02*
X86870000Y-130330000D01*
X86870000Y-130330000D02*
X86870000Y-127670000D01*
X60600000Y-118200000D02*
X60600000Y-118700000D01*
X61340000Y-118200000D02*
X60600000Y-118200000D01*
X67160000Y-124100000D02*
X60840000Y-124100000D01*
X67160000Y-118440000D02*
X60840000Y-118440000D01*
X60840000Y-123330000D02*
X60840000Y-124100000D01*
X60840000Y-120790000D02*
X60840000Y-121750000D01*
X60840000Y-118440000D02*
X60840000Y-119210000D01*
X67160000Y-118440000D02*
X67160000Y-124100000D01*
X66700000Y-118440000D02*
X66700000Y-124100000D01*
X61400000Y-123330000D02*
X61400000Y-124100000D01*
X61400000Y-120790000D02*
X61400000Y-121750000D01*
X61400000Y-118440000D02*
X61400000Y-119210000D01*
X81670000Y-126330000D02*
X81670000Y-125000000D01*
X83000000Y-126330000D02*
X81670000Y-126330000D01*
X84270000Y-126330000D02*
X84270000Y-123670000D01*
X84270000Y-123670000D02*
X86870000Y-123670000D01*
X84270000Y-126330000D02*
X86870000Y-126330000D01*
X86870000Y-126330000D02*
X86870000Y-123670000D01*
X109400000Y-128800000D02*
X109400000Y-128300000D01*
X108660000Y-128800000D02*
X109400000Y-128800000D01*
X102840000Y-122900000D02*
X109160000Y-122900000D01*
X102840000Y-128560000D02*
X109160000Y-128560000D01*
X109160000Y-123670000D02*
X109160000Y-122900000D01*
X109160000Y-126210000D02*
X109160000Y-125250000D01*
X109160000Y-128560000D02*
X109160000Y-127790000D01*
X102840000Y-128560000D02*
X102840000Y-122900000D01*
X103300000Y-128560000D02*
X103300000Y-122900000D01*
X108600000Y-123670000D02*
X108600000Y-122900000D01*
X108600000Y-126210000D02*
X108600000Y-125250000D01*
X108600000Y-128560000D02*
X108600000Y-127790000D01*
X100800000Y-112250000D02*
X89600000Y-112250000D01*
X100800000Y-105750000D02*
X89600000Y-105750000D01*
X100800000Y-105750000D02*
X100800000Y-112250000D01*
X105640000Y-116288748D02*
X105640000Y-117711252D01*
X108360000Y-116288748D02*
X108360000Y-117711252D01*
X77241250Y-121956250D02*
X76453750Y-121956250D01*
X76847500Y-121562500D02*
X76847500Y-122350000D01*
X72654437Y-122590000D02*
X71590000Y-123654437D01*
X77345563Y-122590000D02*
X78410000Y-123654437D01*
X77345563Y-122590000D02*
X76060000Y-122590000D01*
X72654437Y-122590000D02*
X73940000Y-122590000D01*
X71590000Y-123654437D02*
X71590000Y-129410000D01*
X78410000Y-123654437D02*
X78410000Y-129410000D01*
X78410000Y-129410000D02*
X76060000Y-129410000D01*
X71590000Y-129410000D02*
X73940000Y-129410000D01*
X84265000Y-113738748D02*
X84265000Y-114261252D01*
X85735000Y-113738748D02*
X85735000Y-114261252D01*
X101640000Y-116288748D02*
X101640000Y-117711252D01*
X104360000Y-116288748D02*
X104360000Y-117711252D01*
X97640000Y-116288748D02*
X97640000Y-117711252D01*
X100360000Y-116288748D02*
X100360000Y-117711252D01*
D10*
X90538095Y-113587380D02*
X90538095Y-114396904D01*
X90585714Y-114492142D01*
X90633333Y-114539761D01*
X90728571Y-114587380D01*
X90919047Y-114587380D01*
X91014285Y-114539761D01*
X91061904Y-114492142D01*
X91109523Y-114396904D01*
X91109523Y-113587380D01*
X92109523Y-114587380D02*
X91538095Y-114587380D01*
X91823809Y-114587380D02*
X91823809Y-113587380D01*
X91728571Y-113730238D01*
X91633333Y-113825476D01*
X91538095Y-113873095D01*
X95633333Y-128452380D02*
X95300000Y-127976190D01*
X95061904Y-128452380D02*
X95061904Y-127452380D01*
X95442857Y-127452380D01*
X95538095Y-127500000D01*
X95585714Y-127547619D01*
X95633333Y-127642857D01*
X95633333Y-127785714D01*
X95585714Y-127880952D01*
X95538095Y-127928571D01*
X95442857Y-127976190D01*
X95061904Y-127976190D01*
X96538095Y-127452380D02*
X96061904Y-127452380D01*
X96014285Y-127928571D01*
X96061904Y-127880952D01*
X96157142Y-127833333D01*
X96395238Y-127833333D01*
X96490476Y-127880952D01*
X96538095Y-127928571D01*
X96585714Y-128023809D01*
X96585714Y-128261904D01*
X96538095Y-128357142D01*
X96490476Y-128404761D01*
X96395238Y-128452380D01*
X96157142Y-128452380D01*
X96061904Y-128404761D01*
X96014285Y-128357142D01*
X95633333Y-126452380D02*
X95300000Y-125976190D01*
X95061904Y-126452380D02*
X95061904Y-125452380D01*
X95442857Y-125452380D01*
X95538095Y-125500000D01*
X95585714Y-125547619D01*
X95633333Y-125642857D01*
X95633333Y-125785714D01*
X95585714Y-125880952D01*
X95538095Y-125928571D01*
X95442857Y-125976190D01*
X95061904Y-125976190D01*
X96490476Y-125785714D02*
X96490476Y-126452380D01*
X96252380Y-125404761D02*
X96014285Y-126119047D01*
X96633333Y-126119047D01*
X95633333Y-124452380D02*
X95300000Y-123976190D01*
X95061904Y-124452380D02*
X95061904Y-123452380D01*
X95442857Y-123452380D01*
X95538095Y-123500000D01*
X95585714Y-123547619D01*
X95633333Y-123642857D01*
X95633333Y-123785714D01*
X95585714Y-123880952D01*
X95538095Y-123928571D01*
X95442857Y-123976190D01*
X95061904Y-123976190D01*
X95966666Y-123452380D02*
X96585714Y-123452380D01*
X96252380Y-123833333D01*
X96395238Y-123833333D01*
X96490476Y-123880952D01*
X96538095Y-123928571D01*
X96585714Y-124023809D01*
X96585714Y-124261904D01*
X96538095Y-124357142D01*
X96490476Y-124404761D01*
X96395238Y-124452380D01*
X96109523Y-124452380D01*
X96014285Y-124404761D01*
X95966666Y-124357142D01*
X95633333Y-122452380D02*
X95300000Y-121976190D01*
X95061904Y-122452380D02*
X95061904Y-121452380D01*
X95442857Y-121452380D01*
X95538095Y-121500000D01*
X95585714Y-121547619D01*
X95633333Y-121642857D01*
X95633333Y-121785714D01*
X95585714Y-121880952D01*
X95538095Y-121928571D01*
X95442857Y-121976190D01*
X95061904Y-121976190D01*
X96014285Y-121547619D02*
X96061904Y-121500000D01*
X96157142Y-121452380D01*
X96395238Y-121452380D01*
X96490476Y-121500000D01*
X96538095Y-121547619D01*
X96585714Y-121642857D01*
X96585714Y-121738095D01*
X96538095Y-121880952D01*
X95966666Y-122452380D01*
X96585714Y-122452380D01*
X85833333Y-120802380D02*
X85500000Y-120326190D01*
X85261904Y-120802380D02*
X85261904Y-119802380D01*
X85642857Y-119802380D01*
X85738095Y-119850000D01*
X85785714Y-119897619D01*
X85833333Y-119992857D01*
X85833333Y-120135714D01*
X85785714Y-120230952D01*
X85738095Y-120278571D01*
X85642857Y-120326190D01*
X85261904Y-120326190D01*
X86785714Y-120802380D02*
X86214285Y-120802380D01*
X86500000Y-120802380D02*
X86500000Y-119802380D01*
X86404761Y-119945238D01*
X86309523Y-120040476D01*
X86214285Y-120088095D01*
X71733333Y-103152380D02*
X71257142Y-103152380D01*
X71257142Y-102152380D01*
X72590476Y-103152380D02*
X72019047Y-103152380D01*
X72304761Y-103152380D02*
X72304761Y-102152380D01*
X72209523Y-102295238D01*
X72114285Y-102390476D01*
X72019047Y-102438095D01*
X79866666Y-136652380D02*
X79866666Y-137366666D01*
X79819047Y-137509523D01*
X79723809Y-137604761D01*
X79580952Y-137652380D01*
X79485714Y-137652380D01*
X80771428Y-136652380D02*
X80580952Y-136652380D01*
X80485714Y-136700000D01*
X80438095Y-136747619D01*
X80342857Y-136890476D01*
X80295238Y-137080952D01*
X80295238Y-137461904D01*
X80342857Y-137557142D01*
X80390476Y-137604761D01*
X80485714Y-137652380D01*
X80676190Y-137652380D01*
X80771428Y-137604761D01*
X80819047Y-137557142D01*
X80866666Y-137461904D01*
X80866666Y-137223809D01*
X80819047Y-137128571D01*
X80771428Y-137080952D01*
X80676190Y-137033333D01*
X80485714Y-137033333D01*
X80390476Y-137080952D01*
X80342857Y-137128571D01*
X80295238Y-137223809D01*
X79866666Y-132452380D02*
X79866666Y-133166666D01*
X79819047Y-133309523D01*
X79723809Y-133404761D01*
X79580952Y-133452380D01*
X79485714Y-133452380D01*
X80819047Y-132452380D02*
X80342857Y-132452380D01*
X80295238Y-132928571D01*
X80342857Y-132880952D01*
X80438095Y-132833333D01*
X80676190Y-132833333D01*
X80771428Y-132880952D01*
X80819047Y-132928571D01*
X80866666Y-133023809D01*
X80866666Y-133261904D01*
X80819047Y-133357142D01*
X80771428Y-133404761D01*
X80676190Y-133452380D01*
X80438095Y-133452380D01*
X80342857Y-133404761D01*
X80295238Y-133357142D01*
X79866666Y-128452380D02*
X79866666Y-129166666D01*
X79819047Y-129309523D01*
X79723809Y-129404761D01*
X79580952Y-129452380D01*
X79485714Y-129452380D01*
X80771428Y-128785714D02*
X80771428Y-129452380D01*
X80533333Y-128404761D02*
X80295238Y-129119047D01*
X80914285Y-129119047D01*
X66066666Y-117052380D02*
X66066666Y-117766666D01*
X66019047Y-117909523D01*
X65923809Y-118004761D01*
X65780952Y-118052380D01*
X65685714Y-118052380D01*
X66447619Y-117052380D02*
X67066666Y-117052380D01*
X66733333Y-117433333D01*
X66876190Y-117433333D01*
X66971428Y-117480952D01*
X67019047Y-117528571D01*
X67066666Y-117623809D01*
X67066666Y-117861904D01*
X67019047Y-117957142D01*
X66971428Y-118004761D01*
X66876190Y-118052380D01*
X66590476Y-118052380D01*
X66495238Y-118004761D01*
X66447619Y-117957142D01*
X79866666Y-124652380D02*
X79866666Y-125366666D01*
X79819047Y-125509523D01*
X79723809Y-125604761D01*
X79580952Y-125652380D01*
X79485714Y-125652380D01*
X80295238Y-124747619D02*
X80342857Y-124700000D01*
X80438095Y-124652380D01*
X80676190Y-124652380D01*
X80771428Y-124700000D01*
X80819047Y-124747619D01*
X80866666Y-124842857D01*
X80866666Y-124938095D01*
X80819047Y-125080952D01*
X80247619Y-125652380D01*
X80866666Y-125652380D01*
X103066666Y-128852380D02*
X103066666Y-129566666D01*
X103019047Y-129709523D01*
X102923809Y-129804761D01*
X102780952Y-129852380D01*
X102685714Y-129852380D01*
X104066666Y-129852380D02*
X103495238Y-129852380D01*
X103780952Y-129852380D02*
X103780952Y-128852380D01*
X103685714Y-128995238D01*
X103590476Y-129090476D01*
X103495238Y-129138095D01*
X64238095Y-131252380D02*
X64238095Y-130252380D01*
X64238095Y-130728571D02*
X64809523Y-130728571D01*
X64809523Y-131252380D02*
X64809523Y-130252380D01*
X65714285Y-130585714D02*
X65714285Y-131252380D01*
X65476190Y-130204761D02*
X65238095Y-130919047D01*
X65857142Y-130919047D01*
X101238095Y-101852380D02*
X101238095Y-100852380D01*
X101238095Y-101328571D02*
X101809523Y-101328571D01*
X101809523Y-101852380D02*
X101809523Y-100852380D01*
X102190476Y-100852380D02*
X102809523Y-100852380D01*
X102476190Y-101233333D01*
X102619047Y-101233333D01*
X102714285Y-101280952D01*
X102761904Y-101328571D01*
X102809523Y-101423809D01*
X102809523Y-101661904D01*
X102761904Y-101757142D01*
X102714285Y-101804761D01*
X102619047Y-101852380D01*
X102333333Y-101852380D01*
X102238095Y-101804761D01*
X102190476Y-101757142D01*
X107838095Y-132252380D02*
X107838095Y-131252380D01*
X107838095Y-131728571D02*
X108409523Y-131728571D01*
X108409523Y-132252380D02*
X108409523Y-131252380D01*
X108838095Y-131347619D02*
X108885714Y-131300000D01*
X108980952Y-131252380D01*
X109219047Y-131252380D01*
X109314285Y-131300000D01*
X109361904Y-131347619D01*
X109409523Y-131442857D01*
X109409523Y-131538095D01*
X109361904Y-131680952D01*
X108790476Y-132252380D01*
X109409523Y-132252380D01*
X67638095Y-102052380D02*
X67638095Y-101052380D01*
X67638095Y-101528571D02*
X68209523Y-101528571D01*
X68209523Y-102052380D02*
X68209523Y-101052380D01*
X69209523Y-102052380D02*
X68638095Y-102052380D01*
X68923809Y-102052380D02*
X68923809Y-101052380D01*
X68828571Y-101195238D01*
X68733333Y-101290476D01*
X68638095Y-101338095D01*
X101261904Y-109052380D02*
X101261904Y-108052380D01*
X101500000Y-108052380D01*
X101642857Y-108100000D01*
X101738095Y-108195238D01*
X101785714Y-108290476D01*
X101833333Y-108480952D01*
X101833333Y-108623809D01*
X101785714Y-108814285D01*
X101738095Y-108909523D01*
X101642857Y-109004761D01*
X101500000Y-109052380D01*
X101261904Y-109052380D01*
X102785714Y-109052380D02*
X102214285Y-109052380D01*
X102500000Y-109052380D02*
X102500000Y-108052380D01*
X102404761Y-108195238D01*
X102309523Y-108290476D01*
X102214285Y-108338095D01*
X106733333Y-114057142D02*
X106685714Y-114104761D01*
X106542857Y-114152380D01*
X106447619Y-114152380D01*
X106304761Y-114104761D01*
X106209523Y-114009523D01*
X106161904Y-113914285D01*
X106114285Y-113723809D01*
X106114285Y-113580952D01*
X106161904Y-113390476D01*
X106209523Y-113295238D01*
X106304761Y-113200000D01*
X106447619Y-113152380D01*
X106542857Y-113152380D01*
X106685714Y-113200000D01*
X106733333Y-113247619D01*
X107638095Y-113152380D02*
X107161904Y-113152380D01*
X107114285Y-113628571D01*
X107161904Y-113580952D01*
X107257142Y-113533333D01*
X107495238Y-113533333D01*
X107590476Y-113580952D01*
X107638095Y-113628571D01*
X107685714Y-113723809D01*
X107685714Y-113961904D01*
X107638095Y-114057142D01*
X107590476Y-114104761D01*
X107495238Y-114152380D01*
X107257142Y-114152380D01*
X107161904Y-114104761D01*
X107114285Y-114057142D01*
X72633333Y-130757142D02*
X72585714Y-130804761D01*
X72442857Y-130852380D01*
X72347619Y-130852380D01*
X72204761Y-130804761D01*
X72109523Y-130709523D01*
X72061904Y-130614285D01*
X72014285Y-130423809D01*
X72014285Y-130280952D01*
X72061904Y-130090476D01*
X72109523Y-129995238D01*
X72204761Y-129900000D01*
X72347619Y-129852380D01*
X72442857Y-129852380D01*
X72585714Y-129900000D01*
X72633333Y-129947619D01*
X73490476Y-130185714D02*
X73490476Y-130852380D01*
X73252380Y-129804761D02*
X73014285Y-130519047D01*
X73633333Y-130519047D01*
X87157142Y-114166666D02*
X87204761Y-114214285D01*
X87252380Y-114357142D01*
X87252380Y-114452380D01*
X87204761Y-114595238D01*
X87109523Y-114690476D01*
X87014285Y-114738095D01*
X86823809Y-114785714D01*
X86680952Y-114785714D01*
X86490476Y-114738095D01*
X86395238Y-114690476D01*
X86300000Y-114595238D01*
X86252380Y-114452380D01*
X86252380Y-114357142D01*
X86300000Y-114214285D01*
X86347619Y-114166666D01*
X86252380Y-113833333D02*
X86252380Y-113214285D01*
X86633333Y-113547619D01*
X86633333Y-113404761D01*
X86680952Y-113309523D01*
X86728571Y-113261904D01*
X86823809Y-113214285D01*
X87061904Y-113214285D01*
X87157142Y-113261904D01*
X87204761Y-113309523D01*
X87252380Y-113404761D01*
X87252380Y-113690476D01*
X87204761Y-113785714D01*
X87157142Y-113833333D01*
X102533333Y-114057142D02*
X102485714Y-114104761D01*
X102342857Y-114152380D01*
X102247619Y-114152380D01*
X102104761Y-114104761D01*
X102009523Y-114009523D01*
X101961904Y-113914285D01*
X101914285Y-113723809D01*
X101914285Y-113580952D01*
X101961904Y-113390476D01*
X102009523Y-113295238D01*
X102104761Y-113200000D01*
X102247619Y-113152380D01*
X102342857Y-113152380D01*
X102485714Y-113200000D01*
X102533333Y-113247619D01*
X102914285Y-113247619D02*
X102961904Y-113200000D01*
X103057142Y-113152380D01*
X103295238Y-113152380D01*
X103390476Y-113200000D01*
X103438095Y-113247619D01*
X103485714Y-113342857D01*
X103485714Y-113438095D01*
X103438095Y-113580952D01*
X102866666Y-114152380D01*
X103485714Y-114152380D01*
X98933333Y-114057142D02*
X98885714Y-114104761D01*
X98742857Y-114152380D01*
X98647619Y-114152380D01*
X98504761Y-114104761D01*
X98409523Y-114009523D01*
X98361904Y-113914285D01*
X98314285Y-113723809D01*
X98314285Y-113580952D01*
X98361904Y-113390476D01*
X98409523Y-113295238D01*
X98504761Y-113200000D01*
X98647619Y-113152380D01*
X98742857Y-113152380D01*
X98885714Y-113200000D01*
X98933333Y-113247619D01*
X99885714Y-114152380D02*
X99314285Y-114152380D01*
X99600000Y-114152380D02*
X99600000Y-113152380D01*
X99504761Y-113295238D01*
X99409523Y-113390476D01*
X99314285Y-113438095D01*
M02*
