M48
INCH,TZ
T1C0.0118
T2C0.0157
T3C0.0197
T4C0.0394
T5C0.0433
T6C0.0472
T7C0.1260
%
G90
G05
T1
X35709Y-45604
X35709Y-46077
X35709Y-46589
X35709Y-47022
X36181Y-45604
X36181Y-46077
X36181Y-46589
X36181Y-47022
T2
X24882Y-44961
X24882Y-45433
X24882Y-45906
X24882Y-46378
X24882Y-49134
X24882Y-49528
X24882Y-49921
X25276Y-44961
X25276Y-45433
X25276Y-45906
X25276Y-46378
X25276Y-49134
X25276Y-49528
X25276Y-49921
X25669Y-44961
X25669Y-45433
X25669Y-45906
X25669Y-46378
X25669Y-49134
X25669Y-49528
X25669Y-49921
X28465Y-47480
X28465Y-47913
X28858Y-47480
X28858Y-47913
X29134Y-47008
X29528Y-51811
X29567Y-47008
X30000Y-47008
X30433Y-47008
X30866Y-47008
X31378Y-40039
X31378Y-40472
X31811Y-40039
X31811Y-40472
X32244Y-40039
X32244Y-40472
X32992Y-42638
X32992Y-43189
X33465Y-42638
X33465Y-43189
X33937Y-42638
X33937Y-43189
X37717Y-47874
X37717Y-48268
X37717Y-48661
X37717Y-49055
X37717Y-49449
X37717Y-49843
X37717Y-50236
X37717Y-50630
X37992Y-40906
X37992Y-41339
X38465Y-40906
X38465Y-41339
X38780Y-47244
X38937Y-40906
X38937Y-41339
X39173Y-47244
X39409Y-40906
X39409Y-41339
X40157Y-48425
X40157Y-48819
X40157Y-49213
X40315Y-47244
X40551Y-48425
X40551Y-48819
X40551Y-49213
X40630Y-43386
X40630Y-43780
X40630Y-44173
X40709Y-47244
X40945Y-48425
X40945Y-48819
X40945Y-49213
X41102Y-43386
X41102Y-43780
X41102Y-44173
X41102Y-50787
X41102Y-51339
X41496Y-50787
X41496Y-51339
X41890Y-50787
X41890Y-51339
T3
X24646Y-41339
X24646Y-53150
X24922Y-40670
X24922Y-42007
X24922Y-52481
X24922Y-53818
X25591Y-40394
X25591Y-42283
X25591Y-52205
X25591Y-54094
X26259Y-40670
X26259Y-42007
X26259Y-52481
X26259Y-53818
X26535Y-41339
X26535Y-53150
X40354Y-41339
X40394Y-53150
X40631Y-40670
X40631Y-42007
X40670Y-52481
X40670Y-53818
X41299Y-40394
X41299Y-42283
X41339Y-52205
X41339Y-54094
X41967Y-40670
X41967Y-42007
X42007Y-52481
X42007Y-53818
X42244Y-41339
X42283Y-53150
T4
X32677Y-49213
X32677Y-50787
X32677Y-52362
X32677Y-53937
X33677Y-49213
X33677Y-50787
X33677Y-52362
X33677Y-53937
T5
X25197Y-47244
X25197Y-48244
X41732Y-49000
X41732Y-50000
T6
X25197Y-44094
X27953Y-53150
X38583Y-53150
X42126Y-43701
T7
X25591Y-41339
X25591Y-53150
X41299Y-41339
X41339Y-53150
T0
M30
